<svg id="svg" version="1.1" width="400" height="400" xmlns="http://www.w3.org/2000/svg" xmlns:xlink="http://www.w3.org/1999/xlink" style="display: block;"><g id="svgg"><path id="path0" d="M29.462 109.531 C 28.345 110.765,28.453 289.562,29.571 290.574 C 30.298 291.231,33.382 291.265,83.074 291.153 L 135.806 291.035 137.629 291.917 C 139.352 292.751,145.349 293.281,144.154 292.494 C 143.506 292.067,143.106 290.527,143.401 289.596 C 144.064 287.507,148.492 286.924,150.962 288.600 C 151.772 289.150,152.833 289.586,153.318 289.568 C 153.803 289.551,153.975 289.446,153.700 289.335 C 153.410 289.218,153.200 288.418,153.200 287.429 C 153.200 284.486,155.282 283.511,157.527 285.400 C 158.381 286.118,159.150 286.387,160.258 286.354 C 161.106 286.328,161.485 286.225,161.100 286.124 C 160.715 286.024,160.388 285.820,160.372 285.671 C 160.357 285.522,160.280 284.909,160.201 284.310 C 160.085 283.437,160.378 282.952,161.670 281.880 C 163.055 280.729,163.313 280.262,163.498 278.570 C 163.650 277.183,164.052 276.211,164.857 275.286 C 165.486 274.563,166.000 273.740,166.000 273.456 C 166.000 271.755,169.317 270.574,170.571 271.829 C 171.702 272.959,171.338 270.879,170.160 269.480 C 168.607 267.634,169.761 263.600,171.843 263.600 C 172.618 263.600,172.898 262.169,172.610 259.672 C 172.230 256.376,175.117 254.077,177.120 256.080 C 178.112 257.072,177.610 254.452,176.600 253.362 C 174.278 250.856,177.762 247.019,180.171 249.429 C 181.279 250.536,180.949 248.493,179.800 247.127 C 177.570 244.477,181.083 240.843,183.520 243.280 C 183.893 243.653,184.000 243.527,184.000 242.709 C 184.000 242.045,184.257 241.591,184.700 241.476 C 185.266 241.328,185.240 241.284,184.564 241.246 C 183.755 241.201,182.800 239.775,182.800 238.610 C 182.800 238.307,183.254 237.701,183.808 237.265 C 184.363 236.829,185.012 235.910,185.252 235.224 C 185.494 234.529,186.197 233.712,186.837 233.381 C 187.469 233.054,188.253 232.271,188.578 231.642 C 189.569 229.725,190.957 229.511,192.727 231.000 C 193.381 231.550,194.340 231.995,194.858 231.988 C 195.690 231.977,195.719 231.928,195.100 231.568 C 193.975 230.913,194.180 228.631,195.454 227.629 C 198.368 225.337,205.600 226.891,205.600 229.809 C 205.600 230.674,205.348 231.307,204.900 231.568 C 204.281 231.928,204.310 231.977,205.142 231.988 C 205.660 231.995,206.619 231.550,207.273 231.000 C 209.043 229.511,210.431 229.725,211.422 231.642 C 211.747 232.271,212.531 233.054,213.163 233.381 C 213.803 233.712,214.506 234.529,214.748 235.224 C 214.988 235.910,215.637 236.829,216.192 237.265 C 216.746 237.701,217.200 238.307,217.200 238.610 C 217.200 239.775,216.245 241.201,215.436 241.246 C 214.760 241.284,214.734 241.328,215.300 241.476 C 215.743 241.591,216.000 242.045,216.000 242.709 C 216.000 243.527,216.107 243.653,216.480 243.280 C 218.924 240.836,222.437 244.469,220.200 247.127 C 219.051 248.493,218.721 250.536,219.829 249.429 C 222.241 247.016,225.725 250.853,223.400 253.362 C 222.390 254.452,221.888 257.072,222.880 256.080 C 224.883 254.077,227.770 256.376,227.390 259.672 C 227.102 262.169,227.382 263.600,228.157 263.600 C 230.239 263.600,231.393 267.634,229.840 269.480 C 228.662 270.879,228.298 272.959,229.429 271.829 C 230.709 270.548,234.000 271.760,234.000 273.512 C 234.000 273.765,234.514 274.563,235.143 275.286 C 235.948 276.211,236.350 277.183,236.502 278.570 C 236.687 280.262,236.945 280.729,238.330 281.880 C 239.622 282.952,239.915 283.437,239.799 284.310 C 239.720 284.909,239.643 285.522,239.628 285.671 C 239.612 285.820,239.285 286.024,238.900 286.124 C 238.515 286.225,238.894 286.328,239.742 286.354 C 240.850 286.387,241.619 286.118,242.473 285.400 C 244.726 283.504,246.800 284.509,246.800 287.498 C 246.800 288.432,246.586 289.220,246.300 289.335 C 246.025 289.446,246.197 289.551,246.682 289.568 C 247.167 289.586,248.228 289.150,249.038 288.600 C 251.508 286.924,255.936 287.507,256.599 289.596 C 256.894 290.527,256.494 292.067,255.846 292.494 C 254.651 293.281,260.648 292.751,262.371 291.917 L 264.194 291.035 316.926 291.153 C 366.618 291.265,369.702 291.231,370.429 290.574 C 371.608 289.507,371.647 110.528,370.469 109.462 C 369.271 108.378,30.443 108.447,29.462 109.531 M102.145 138.335 C 103.945 139.131,110.055 139.608,111.600 139.073 C 111.930 138.958,112.650 138.771,113.200 138.656 C 113.750 138.540,115.370 138.172,116.800 137.837 C 122.449 136.514,126.000 137.416,126.000 140.174 C 126.000 141.072,125.754 141.704,125.300 141.968 C 124.666 142.337,124.681 142.377,125.451 142.388 C 125.919 142.395,126.568 142.000,126.893 141.511 C 127.917 139.969,132.629 140.333,134.098 142.068 C 134.702 142.781,135.962 143.733,136.898 144.182 C 139.014 145.199,139.625 147.696,137.924 148.379 C 137.029 148.738,137.036 148.750,138.137 148.775 C 138.930 148.792,139.335 148.571,139.473 148.043 C 139.922 146.327,143.544 146.824,144.183 148.689 C 144.316 149.080,145.000 149.760,145.702 150.201 C 146.403 150.641,147.168 151.385,147.402 151.854 C 147.636 152.323,148.406 153.193,149.113 153.789 C 150.608 155.046,150.783 156.417,149.600 157.600 C 149.151 158.049,148.820 158.882,148.846 159.500 C 148.875 160.177,148.963 160.331,149.076 159.900 C 149.356 158.829,152.134 158.948,153.184 160.075 C 154.418 161.399,154.157 164.169,152.757 164.614 C 152.313 164.755,152.005 165.215,152.012 165.727 C 152.023 166.512,152.065 166.530,152.432 165.900 C 153.016 164.897,155.278 164.981,156.238 166.042 C 157.393 167.318,157.311 171.512,156.100 173.150 C 155.284 174.255,155.200 174.816,155.200 179.200 C 155.200 183.584,155.284 184.145,156.100 185.250 C 157.311 186.888,157.393 191.082,156.238 192.358 C 155.278 193.419,153.016 193.503,152.432 192.500 C 152.065 191.870,152.023 191.888,152.012 192.673 C 152.005 193.185,152.313 193.645,152.757 193.786 C 154.157 194.231,154.418 197.001,153.184 198.325 C 152.134 199.452,149.356 199.571,149.076 198.500 C 148.963 198.069,148.875 198.223,148.846 198.900 C 148.820 199.518,149.151 200.351,149.600 200.800 C 150.783 201.983,150.608 203.354,149.113 204.611 C 148.406 205.207,147.636 206.077,147.402 206.546 C 147.168 207.015,146.403 207.759,145.702 208.199 C 145.000 208.640,144.316 209.320,144.183 209.711 C 143.544 211.576,139.922 212.073,139.473 210.357 C 139.335 209.829,138.930 209.608,138.137 209.625 C 137.036 209.650,137.029 209.662,137.924 210.021 C 139.625 210.704,139.014 213.201,136.898 214.218 C 135.962 214.667,134.702 215.621,134.098 216.337 C 132.676 218.024,127.866 218.355,126.857 216.836 C 126.552 216.376,125.919 216.005,125.451 216.012 C 124.681 216.023,124.666 216.063,125.300 216.432 C 126.304 217.017,126.219 219.278,125.157 220.238 C 123.385 221.839,114.055 220.697,113.968 218.868 C 113.949 218.452,113.861 218.389,113.735 218.700 C 113.590 219.060,112.212 219.200,108.800 219.200 C 105.388 219.200,104.010 219.060,103.865 218.700 C 103.738 218.386,103.651 218.447,103.632 218.862 C 103.563 220.306,96.008 221.797,93.670 220.829 C 91.805 220.056,91.107 216.698,92.724 216.271 C 93.166 216.155,93.062 216.077,92.426 216.046 C 91.890 216.021,91.048 216.380,90.554 216.843 C 88.994 218.309,84.925 218.014,83.502 216.333 C 82.898 215.619,81.638 214.667,80.702 214.218 C 78.586 213.201,77.975 210.704,79.676 210.021 C 80.571 209.662,80.564 209.650,79.463 209.625 C 78.670 209.608,78.265 209.829,78.127 210.357 C 77.678 212.073,74.056 211.576,73.417 209.711 C 73.284 209.320,72.600 208.640,71.898 208.199 C 71.197 207.759,70.432 207.015,70.198 206.546 C 69.964 206.077,69.194 205.207,68.487 204.611 C 66.992 203.354,66.817 201.983,68.000 200.800 C 68.449 200.351,68.780 199.518,68.754 198.900 C 68.725 198.223,68.637 198.069,68.524 198.500 C 68.244 199.571,65.466 199.452,64.416 198.325 C 63.182 197.001,63.443 194.231,64.843 193.786 C 65.287 193.645,65.595 193.185,65.588 192.673 C 65.577 191.888,65.535 191.870,65.168 192.500 C 64.584 193.503,62.322 193.419,61.362 192.358 C 60.207 191.082,60.289 186.888,61.500 185.250 C 62.316 184.145,62.400 183.584,62.400 179.200 C 62.400 174.816,62.316 174.255,61.500 173.150 C 60.289 171.512,60.207 167.318,61.362 166.042 C 62.322 164.981,64.584 164.897,65.168 165.900 C 65.535 166.530,65.577 166.512,65.588 165.727 C 65.595 165.215,65.287 164.755,64.843 164.614 C 63.416 164.161,63.193 161.485,64.470 160.126 C 65.569 158.956,68.239 158.807,68.524 159.900 C 68.625 160.285,68.728 160.034,68.754 159.343 C 68.781 158.597,68.571 157.998,68.238 157.870 C 66.901 157.357,67.019 155.117,68.451 153.840 C 69.193 153.179,69.985 152.270,70.211 151.820 C 70.438 151.370,71.197 150.641,71.898 150.201 C 72.600 149.760,73.284 149.080,73.417 148.689 C 74.056 146.824,77.678 146.327,78.127 148.043 C 78.265 148.571,78.670 148.792,79.463 148.775 C 80.564 148.750,80.571 148.738,79.676 148.379 C 77.975 147.696,78.586 145.199,80.702 144.182 C 81.638 143.733,82.898 142.783,83.502 142.071 C 84.951 140.364,88.955 140.054,90.524 141.528 C 91.034 142.008,91.890 142.395,92.426 142.388 C 93.280 142.377,93.314 142.326,92.700 141.968 C 91.554 141.301,91.782 139.031,93.100 137.984 C 94.504 136.869,99.248 137.053,102.145 138.335 M280.244 147.900 C 282.065 149.868,282.790 151.595,282.804 154.000 C 282.813 155.569,283.044 156.005,284.200 156.638 C 285.184 157.178,285.925 159.810,285.968 162.921 C 285.998 165.115,286.064 165.264,287.171 165.650 C 288.520 166.120,289.200 167.640,289.200 170.185 C 289.200 171.506,289.443 172.083,290.378 172.979 C 291.604 174.154,292.400 176.711,292.400 179.477 C 292.400 180.613,292.692 181.177,293.787 182.158 C 295.028 183.269,295.216 183.714,295.565 186.378 C 295.897 188.906,296.137 189.526,297.153 190.475 C 298.317 191.563,298.570 192.393,298.897 196.200 C 298.962 196.954,299.223 197.400,299.600 197.400 C 300.126 197.400,300.213 194.380,300.303 173.028 C 300.417 146.165,300.246 147.921,302.879 146.559 C 304.145 145.904,333.423 145.746,336.152 146.379 C 337.046 146.587,338.325 147.346,339.169 148.170 C 339.975 148.956,340.820 149.600,341.047 149.600 C 341.742 149.600,343.076 151.319,343.564 152.845 C 343.818 153.641,344.548 154.756,345.185 155.324 C 346.692 156.667,346.944 158.407,346.729 165.985 C 346.551 172.257,346.355 172.933,344.516 173.632 C 343.881 173.874,343.600 174.304,343.600 175.036 C 343.600 175.711,343.123 176.545,342.280 177.346 C 339.375 180.105,339.172 184.739,341.851 187.117 C 342.498 187.692,343.106 188.888,343.475 190.317 C 343.799 191.573,344.504 193.064,345.040 193.630 C 346.917 195.612,347.480 200.520,346.000 202.000 C 345.277 202.723,344.667 202.800,339.626 202.800 C 333.089 202.800,332.182 202.560,331.796 200.724 C 331.643 199.996,330.978 198.833,330.318 198.139 C 329.445 197.221,328.965 196.145,328.554 194.186 C 328.164 192.323,327.631 191.085,326.822 190.164 C 326.029 189.260,325.573 188.219,325.402 186.917 C 325.263 185.863,325.113 184.730,325.069 184.400 C 325.003 183.903,324.132 183.800,319.995 183.800 L 315.000 183.800 314.800 192.733 C 314.554 203.708,315.090 202.929,308.000 202.625 C 301.610 202.350,300.597 202.349,293.600 202.612 C 285.543 202.914,284.151 202.014,283.713 196.220 C 283.504 193.456,283.392 193.144,282.445 192.690 C 281.874 192.417,281.169 191.696,280.878 191.088 L 280.349 189.984 271.903 190.092 L 263.457 190.200 263.148 191.358 C 262.977 191.995,262.364 193.011,261.786 193.615 C 260.935 194.503,260.659 195.317,260.347 197.857 C 259.776 202.511,259.685 202.569,252.626 202.737 C 245.030 202.917,244.991 202.887,245.311 197.045 C 245.532 193.007,245.535 192.998,246.966 191.758 C 248.147 190.734,248.402 190.241,248.410 188.958 C 248.426 186.331,249.190 183.859,250.372 182.600 C 251.243 181.673,251.559 180.861,251.762 179.026 C 252.045 176.463,252.460 175.710,253.884 175.168 C 254.660 174.873,254.801 174.528,254.810 172.910 C 254.824 169.983,255.421 168.026,256.719 166.651 C 257.648 165.666,257.955 164.895,258.162 163.026 C 258.445 160.463,258.860 159.710,260.284 159.168 C 261.042 158.880,261.200 158.524,261.200 157.107 C 261.200 154.637,261.812 152.863,262.980 151.945 C 263.650 151.417,264.091 150.575,264.264 149.489 C 264.774 146.302,265.480 146.000,272.425 146.000 L 278.487 146.000 280.244 147.900 M314.991 158.479 C 314.874 158.784,314.828 161.816,314.889 165.217 L 315.000 171.400 321.658 171.509 L 328.315 171.619 328.742 170.394 C 329.025 169.583,329.580 169.026,330.385 168.745 L 331.600 168.322 331.600 164.793 L 331.600 161.264 330.388 160.997 C 329.722 160.851,328.644 160.162,327.994 159.466 L 326.812 158.200 321.008 158.063 C 316.336 157.952,315.162 158.033,314.991 158.479 M271.400 167.147 C 270.253 167.395,270.189 167.521,269.942 170.003 C 269.799 171.432,269.378 173.648,269.005 174.930 C 268.151 177.859,268.070 177.800,272.932 177.800 L 277.000 177.800 276.922 176.677 C 276.878 176.060,276.306 174.943,275.649 174.194 C 274.515 172.903,274.221 171.896,273.903 168.203 C 273.792 166.913,273.346 166.725,271.400 167.147 M186.202 240.798 C 185.540 241.530,185.535 241.600,186.151 241.600 C 186.522 241.600,186.932 241.322,187.062 240.983 C 187.434 240.012,186.998 239.918,186.202 240.798 M212.800 240.551 C 212.800 240.922,213.078 241.332,213.417 241.462 C 214.388 241.834,214.482 241.398,213.602 240.602 C 212.870 239.940,212.800 239.935,212.800 240.551 " stroke="none" fill="#000000" fill-rule="evenodd"></path><path id="path1" d="M24.629 104.629 C 24.283 104.974,24.005 105.469,24.012 105.729 C 24.019 105.988,24.205 105.891,24.425 105.513 C 24.645 105.135,25.135 104.645,25.513 104.425 C 25.891 104.205,25.988 104.019,25.729 104.012 C 25.469 104.005,24.974 104.283,24.629 104.629 M28.258 104.277 C 28.862 104.395,29.170 104.815,29.299 105.694 C 29.699 108.422,24.798 110.923,24.277 108.258 C 24.184 107.786,24.109 149.070,24.109 200.000 C 24.109 250.930,24.184 292.214,24.277 291.742 C 24.798 289.077,29.699 291.578,29.299 294.306 C 29.170 295.185,28.862 295.605,28.258 295.723 C 27.786 295.816,49.000 295.894,75.400 295.898 C 101.800 295.902,122.860 295.790,122.200 295.649 C 120.545 295.295,120.394 292.805,122.000 292.358 C 123.415 291.964,135.059 291.969,137.100 292.364 C 139.198 292.770,139.263 292.558,137.300 291.713 C 135.940 291.128,130.865 291.077,83.071 291.169 C 33.395 291.266,30.297 291.231,29.571 290.574 C 28.392 289.507,28.353 110.528,29.531 109.462 C 30.729 108.378,369.557 108.447,370.538 109.531 C 371.655 110.765,371.547 289.562,370.429 290.574 C 369.703 291.231,366.605 291.266,316.929 291.169 C 269.135 291.077,264.060 291.128,262.700 291.713 C 260.737 292.558,260.802 292.770,262.900 292.364 C 264.941 291.969,276.585 291.964,278.000 292.358 C 279.606 292.805,279.455 295.295,277.800 295.649 C 277.140 295.790,298.200 295.902,324.600 295.898 C 351.000 295.894,372.214 295.816,371.742 295.723 C 369.077 295.202,371.578 290.301,374.306 290.701 C 375.185 290.830,375.605 291.138,375.723 291.742 C 375.816 292.214,375.891 250.930,375.891 200.000 C 375.891 149.070,375.816 107.786,375.723 108.258 C 375.605 108.862,375.185 109.170,374.306 109.299 C 371.578 109.699,369.077 104.798,371.742 104.277 C 372.214 104.184,294.930 104.109,200.000 104.109 C 105.070 104.109,27.786 104.184,28.258 104.277 M374.487 104.425 C 374.865 104.645,375.355 105.135,375.575 105.513 C 375.795 105.891,375.981 105.988,375.988 105.729 C 376.004 105.119,374.881 103.996,374.271 104.012 C 374.012 104.019,374.109 104.205,374.487 104.425 M93.100 137.984 C 90.724 139.872,91.902 142.469,95.074 142.336 C 96.583 142.273,96.585 142.270,95.277 142.109 C 93.238 141.858,93.492 139.189,95.600 138.711 C 96.872 138.422,101.008 138.595,103.000 139.019 C 103.440 139.113,103.007 138.813,102.038 138.353 C 99.293 137.048,94.525 136.852,93.100 137.984 M116.600 137.863 C 115.280 138.183,113.570 138.594,112.800 138.776 C 110.756 139.261,111.912 139.258,116.305 138.768 C 120.581 138.291,123.529 138.549,123.866 139.429 C 124.317 140.603,123.635 141.941,122.499 142.114 C 121.632 142.245,121.723 142.293,122.926 142.340 C 125.163 142.428,126.000 141.839,126.000 140.180 C 126.000 137.415,122.258 136.493,116.600 137.863 M86.200 140.690 C 84.995 140.790,84.329 141.137,83.502 142.094 C 82.898 142.793,81.638 143.733,80.702 144.182 C 77.797 145.578,78.237 148.834,81.326 148.794 C 81.652 148.790,81.635 148.683,81.275 148.455 C 79.416 147.276,80.697 144.526,82.896 144.973 C 86.322 145.669,87.018 145.706,86.500 145.164 C 84.750 143.331,86.756 141.219,89.521 141.982 C 91.222 142.452,91.452 142.343,90.502 141.518 C 89.642 140.770,88.307 140.513,86.200 140.690 M128.099 140.698 C 127.604 140.785,126.998 141.231,126.753 141.689 C 126.371 142.402,126.405 142.484,126.991 142.259 C 130.392 140.954,133.215 142.949,131.100 145.164 C 130.582 145.706,131.278 145.669,134.704 144.973 C 136.903 144.526,138.184 147.276,136.325 148.455 C 135.965 148.683,135.948 148.790,136.274 148.794 C 139.363 148.834,139.803 145.578,136.898 144.182 C 135.962 143.733,134.702 142.805,134.098 142.121 C 132.986 140.860,130.517 140.275,128.099 140.698 M265.446 146.918 C 264.942 147.422,264.410 148.579,264.264 149.489 C 264.091 150.575,263.650 151.417,262.980 151.945 C 261.812 152.863,261.200 154.637,261.200 157.107 C 261.200 158.524,261.042 158.880,260.284 159.168 C 258.860 159.710,258.445 160.463,258.162 163.026 C 257.955 164.895,257.648 165.666,256.719 166.651 C 255.421 168.026,254.824 169.983,254.810 172.910 C 254.801 174.528,254.660 174.873,253.884 175.168 C 252.460 175.710,252.045 176.463,251.762 179.026 C 251.559 180.861,251.243 181.673,250.372 182.600 C 249.190 183.859,248.426 186.331,248.410 188.958 C 248.402 190.241,248.147 190.734,246.966 191.758 C 245.535 192.998,245.532 193.007,245.311 197.045 C 244.991 202.887,245.030 202.917,252.626 202.737 C 259.685 202.569,259.776 202.511,260.347 197.857 C 260.659 195.317,260.935 194.503,261.786 193.615 C 262.364 193.011,262.977 191.995,263.148 191.358 L 263.457 190.200 271.903 190.092 L 280.349 189.984 280.878 191.088 C 281.169 191.696,281.874 192.417,282.445 192.690 C 283.392 193.144,283.504 193.456,283.713 196.220 C 284.151 202.014,285.543 202.914,293.600 202.612 C 300.597 202.349,301.610 202.350,308.000 202.625 C 315.090 202.929,314.554 203.708,314.800 192.733 L 315.000 183.800 319.995 183.800 C 324.132 183.800,325.003 183.903,325.069 184.400 C 325.113 184.730,325.263 185.863,325.402 186.917 C 325.573 188.219,326.029 189.260,326.822 190.164 C 327.631 191.085,328.164 192.323,328.554 194.186 C 328.965 196.145,329.445 197.221,330.318 198.139 C 330.978 198.833,331.643 199.996,331.796 200.724 C 332.182 202.560,333.089 202.800,339.626 202.800 C 344.667 202.800,345.277 202.723,346.000 202.000 C 347.480 200.520,346.917 195.612,345.040 193.630 C 344.504 193.064,343.799 191.573,343.475 190.317 C 343.106 188.888,342.498 187.692,341.851 187.117 C 339.172 184.739,339.375 180.105,342.280 177.346 C 343.123 176.545,343.600 175.711,343.600 175.036 C 343.600 174.304,343.881 173.874,344.516 173.632 C 346.355 172.933,346.551 172.257,346.729 165.985 C 346.944 158.407,346.692 156.667,345.185 155.324 C 344.548 154.756,343.818 153.641,343.564 152.845 C 343.076 151.319,341.742 149.600,341.047 149.600 C 340.820 149.600,339.975 148.956,339.169 148.170 C 338.325 147.346,337.046 146.587,336.152 146.379 C 333.423 145.746,304.145 145.904,302.879 146.559 C 300.246 147.921,300.417 146.165,300.303 173.028 C 300.213 194.380,300.126 197.400,299.600 197.400 C 299.223 197.400,298.962 196.954,298.897 196.200 C 298.570 192.393,298.317 191.563,297.153 190.475 C 296.137 189.526,295.897 188.906,295.565 186.378 C 295.216 183.714,295.028 183.269,293.787 182.158 C 292.692 181.177,292.400 180.613,292.400 179.477 C 292.400 176.711,291.604 174.154,290.378 172.979 C 289.443 172.083,289.200 171.506,289.200 170.185 C 289.200 167.640,288.520 166.120,287.171 165.650 C 286.064 165.264,285.998 165.115,285.968 162.921 C 285.925 159.810,285.184 157.178,284.200 156.638 C 283.044 156.005,282.813 155.569,282.804 154.000 C 282.790 151.595,282.065 149.868,280.244 147.900 L 278.487 146.000 272.425 146.000 C 266.638 146.000,266.322 146.042,265.446 146.918 M74.247 147.806 C 73.710 148.392,73.120 149.033,72.935 149.232 C 72.751 149.430,72.015 150.060,71.300 150.632 C 70.585 151.203,70.000 151.880,70.000 152.136 C 70.000 152.391,69.352 153.117,68.560 153.749 C 66.457 155.427,66.937 157.851,69.446 158.225 C 70.975 158.453,71.761 157.893,71.820 156.533 C 71.861 155.609,72.094 155.373,73.186 155.149 C 74.647 154.850,75.185 154.248,75.194 152.900 C 75.199 152.215,75.433 152.000,76.171 152.000 C 79.019 152.000,79.318 147.619,76.511 147.017 C 75.432 146.786,75.064 146.914,74.247 147.806 M140.541 147.077 C 138.213 147.532,139.019 152.000,141.429 152.000 C 142.167 152.000,142.401 152.215,142.406 152.900 C 142.415 154.248,142.953 154.850,144.414 155.149 C 145.506 155.373,145.739 155.609,145.780 156.533 C 145.840 157.903,146.626 158.453,148.190 158.219 C 150.706 157.843,151.141 155.426,149.000 153.717 C 148.230 153.103,147.600 152.391,147.600 152.136 C 147.600 151.880,147.015 151.203,146.300 150.632 C 145.585 150.060,144.849 149.430,144.665 149.232 C 144.480 149.033,143.903 148.405,143.383 147.835 C 142.446 146.811,142.216 146.749,140.541 147.077 M278.311 147.423 C 278.800 147.765,279.200 148.291,279.200 148.592 C 279.200 148.893,279.636 149.656,280.168 150.289 C 280.701 150.922,281.434 152.601,281.798 154.020 C 282.162 155.439,282.886 157.335,283.407 158.232 C 284.255 159.693,284.626 160.867,285.377 164.469 C 285.499 165.057,286.075 166.104,286.657 166.794 C 287.340 167.606,287.972 169.161,288.444 171.189 C 288.846 172.916,289.622 174.986,290.167 175.789 C 290.712 176.593,291.281 178.094,291.431 179.125 C 291.711 181.051,292.480 182.923,293.442 184.025 C 293.742 184.368,294.330 186.018,294.748 187.691 C 295.166 189.364,295.959 191.333,296.511 192.066 C 297.063 192.800,297.645 194.210,297.805 195.200 C 297.965 196.190,298.375 197.703,298.716 198.562 C 299.764 201.199,298.398 202.002,292.878 201.994 C 290.525 201.991,288.378 201.847,288.108 201.675 C 286.744 200.809,284.828 197.363,284.572 195.318 C 284.250 192.736,283.069 190.844,281.192 189.901 C 279.451 189.026,264.822 188.873,263.349 189.714 C 261.427 190.812,260.299 192.778,259.585 196.275 C 258.539 201.391,258.052 201.763,252.162 201.935 C 246.226 202.109,245.793 201.832,246.140 198.082 C 246.268 196.698,246.604 195.146,246.887 194.635 C 247.169 194.123,247.781 193.006,248.247 192.152 C 248.714 191.299,249.218 189.756,249.368 188.725 C 249.518 187.694,250.097 186.179,250.654 185.358 C 251.211 184.537,252.014 182.511,252.437 180.855 C 252.861 179.199,253.539 177.474,253.944 177.022 C 255.039 175.800,255.180 175.460,255.638 172.923 C 255.869 171.645,256.509 169.940,257.060 169.133 C 257.612 168.327,258.396 166.372,258.803 164.790 C 259.210 163.207,259.893 161.527,260.321 161.056 C 261.419 159.849,261.850 158.861,262.158 156.847 C 262.306 155.883,262.945 154.353,263.580 153.447 C 264.214 152.541,264.860 151.170,265.014 150.400 C 265.673 147.115,266.217 146.859,272.611 146.825 C 276.349 146.806,277.620 146.939,278.311 147.423 M336.555 148.200 C 338.943 149.666,342.800 153.133,342.800 153.813 C 342.800 154.087,343.446 155.249,344.235 156.397 L 345.670 158.483 345.535 164.610 C 345.410 170.275,345.334 170.808,344.519 171.674 C 344.035 172.189,343.375 173.238,343.053 174.005 C 342.732 174.772,341.868 175.973,341.134 176.672 C 338.468 179.215,336.922 181.600,337.939 181.600 C 338.340 181.600,339.409 183.986,339.944 186.076 C 340.152 186.887,340.772 188.147,341.323 188.876 C 341.873 189.604,342.611 191.179,342.962 192.375 C 343.314 193.571,343.944 194.921,344.362 195.375 C 344.781 195.829,345.320 196.920,345.559 197.800 C 346.569 201.502,345.849 202.000,339.489 202.000 C 333.736 202.000,333.183 201.758,332.207 198.822 C 331.846 197.735,331.172 196.363,330.708 195.774 C 330.245 195.185,329.545 193.547,329.153 192.133 C 328.761 190.720,328.004 189.045,327.470 188.410 C 326.936 187.776,326.372 186.569,326.216 185.729 C 325.712 183.011,325.270 182.800,320.070 182.800 C 313.601 182.800,314.000 182.173,314.000 192.330 C 314.000 202.539,314.304 202.000,308.538 202.000 C 302.138 202.000,302.800 205.186,302.800 174.400 C 302.800 148.743,302.811 148.389,303.618 147.582 C 304.417 146.783,304.779 146.767,319.518 146.882 L 334.600 147.000 336.555 148.200 M74.800 152.400 C 74.800 153.435,73.346 154.886,72.475 154.721 C 71.775 154.587,71.374 153.166,71.756 152.171 C 72.123 151.215,74.800 151.416,74.800 152.400 M145.800 153.195 C 145.800 154.886,144.849 155.249,143.625 154.025 C 142.211 152.611,142.523 151.529,144.300 151.676 C 145.723 151.794,145.800 151.872,145.800 153.195 M314.662 157.931 C 314.106 158.546,314.000 159.656,314.000 164.870 C 314.000 172.890,313.508 172.400,321.558 172.400 C 328.282 172.400,328.439 172.357,331.133 169.776 L 332.933 168.050 332.933 165.109 C 332.933 161.038,330.508 158.231,326.400 157.547 C 322.525 156.902,315.382 157.136,314.662 157.931 M327.994 159.466 C 328.644 160.162,329.722 160.851,330.388 160.997 L 331.600 161.264 331.600 164.793 L 331.600 168.322 330.385 168.745 C 329.580 169.026,329.025 169.583,328.742 170.394 L 328.315 171.619 321.658 171.509 L 315.000 171.400 314.889 165.217 C 314.744 157.146,314.101 157.899,321.008 158.063 L 326.812 158.200 327.994 159.466 M64.415 160.184 C 63.086 161.599,63.670 164.757,65.268 164.794 C 65.415 164.797,65.357 164.154,65.139 163.364 C 64.535 161.176,64.894 160.695,67.009 160.863 C 68.391 160.973,68.763 160.882,68.606 160.471 C 68.493 160.176,68.400 159.769,68.400 159.567 C 68.400 158.724,65.342 159.197,64.415 160.184 M149.200 159.567 C 149.200 159.769,149.107 160.176,148.994 160.471 C 148.837 160.882,149.209 160.973,150.591 160.863 C 152.706 160.695,153.065 161.176,152.461 163.364 C 152.243 164.154,152.185 164.797,152.332 164.794 C 153.891 164.758,154.511 161.471,153.218 160.100 C 152.355 159.186,149.200 158.767,149.200 159.567 M271.507 165.343 C 269.918 166.254,269.404 167.183,268.990 169.895 C 268.848 170.827,268.312 172.208,267.799 172.964 C 266.784 174.458,266.369 177.329,267.066 178.026 C 267.784 178.744,276.453 178.992,277.336 178.319 C 278.333 177.559,277.883 174.398,276.554 172.818 C 275.952 172.103,275.302 170.366,274.768 168.047 C 273.860 164.104,273.782 164.039,271.507 165.343 M61.415 165.984 C 60.014 167.531,60.258 172.320,61.802 173.602 C 62.276 173.995,62.304 173.860,61.982 172.737 C 61.482 170.995,61.496 168.941,62.014 167.974 C 62.490 167.084,65.003 166.876,65.335 167.700 C 65.452 167.989,65.550 167.894,65.568 167.474 C 65.663 165.288,62.931 164.308,61.415 165.984 M152.414 165.974 C 152.186 166.399,152.014 167.074,152.032 167.474 C 152.050 167.894,152.148 167.989,152.265 167.700 C 152.597 166.876,155.110 167.084,155.586 167.974 C 156.104 168.941,156.118 170.995,155.618 172.737 C 155.296 173.860,155.324 173.995,155.798 173.602 C 157.342 172.320,157.586 167.531,156.185 165.984 C 155.234 164.932,152.975 164.926,152.414 165.974 M273.903 168.203 C 274.221 171.896,274.515 172.903,275.649 174.194 C 276.306 174.943,276.878 176.060,276.922 176.677 L 277.000 177.800 272.932 177.800 C 268.070 177.800,268.151 177.859,269.005 174.930 C 269.378 173.648,269.799 171.432,269.942 170.003 C 270.268 166.727,273.644 165.193,273.903 168.203 M61.309 185.482 C 60.293 187.033,60.325 191.213,61.362 192.358 C 62.928 194.089,65.665 193.157,65.568 190.926 C 65.550 190.506,65.452 190.411,65.335 190.700 C 65.003 191.524,62.490 191.316,62.014 190.426 C 61.500 189.465,61.482 187.408,61.972 185.697 C 62.426 184.116,62.243 184.057,61.309 185.482 M155.618 185.663 C 156.118 187.405,156.104 189.459,155.586 190.426 C 155.110 191.316,152.597 191.524,152.265 190.700 C 152.148 190.411,152.050 190.506,152.032 190.926 C 151.937 193.112,154.669 194.092,156.185 192.416 C 157.586 190.869,157.342 186.080,155.798 184.798 C 155.324 184.405,155.296 184.540,155.618 185.663 M64.470 193.948 C 63.486 194.572,63.431 197.292,64.382 198.300 C 65.245 199.214,68.400 199.633,68.400 198.833 C 68.400 198.631,68.493 198.224,68.606 197.929 C 68.763 197.518,68.391 197.427,67.009 197.537 C 64.894 197.705,64.535 197.224,65.139 195.036 C 65.544 193.571,65.409 193.353,64.470 193.948 M152.461 195.036 C 153.065 197.224,152.706 197.705,150.591 197.537 C 149.209 197.427,148.837 197.518,148.994 197.929 C 149.107 198.224,149.200 198.631,149.200 198.833 C 149.200 199.633,152.355 199.214,153.218 198.300 C 154.511 196.929,153.891 193.642,152.332 193.606 C 152.185 193.603,152.243 194.246,152.461 195.036 M67.963 200.837 C 66.772 202.028,67.001 203.407,68.600 204.683 C 69.370 205.297,70.000 206.009,70.000 206.264 C 70.000 206.520,70.585 207.197,71.300 207.768 C 72.015 208.340,72.751 208.970,72.935 209.168 C 73.120 209.367,73.710 210.008,74.247 210.594 C 75.064 211.486,75.432 211.614,76.511 211.383 C 79.318 210.781,79.019 206.400,76.171 206.400 C 75.433 206.400,75.199 206.185,75.194 205.500 C 75.185 204.146,74.646 203.550,73.152 203.240 C 72.121 203.026,71.823 202.774,71.898 202.180 C 72.140 200.268,69.450 199.350,67.963 200.837 M146.414 200.378 C 146.092 200.584,145.807 201.255,145.780 201.867 C 145.739 202.791,145.506 203.027,144.414 203.251 C 142.953 203.550,142.415 204.152,142.406 205.500 C 142.401 206.185,142.167 206.400,141.429 206.400 C 138.581 206.400,138.282 210.781,141.089 211.383 C 142.399 211.663,142.373 211.679,144.729 209.104 C 144.878 208.941,145.585 208.340,146.300 207.768 C 147.015 207.197,147.600 206.520,147.600 206.264 C 147.600 206.009,148.230 205.297,149.000 204.683 C 151.687 202.539,149.284 198.540,146.414 200.378 M74.000 204.400 C 74.440 204.840,74.800 205.571,74.800 206.024 C 74.800 207.319,71.855 206.987,71.668 205.671 C 71.374 203.590,72.549 202.949,74.000 204.400 M145.800 205.205 C 145.800 206.528,145.723 206.606,144.300 206.724 C 142.523 206.871,142.211 205.789,143.625 204.375 C 144.849 203.151,145.800 203.514,145.800 205.205 M79.676 210.021 C 77.975 210.704,78.586 213.201,80.702 214.218 C 81.638 214.667,82.898 215.619,83.502 216.333 C 84.846 217.921,88.958 218.305,90.423 216.979 C 91.446 216.053,91.260 215.937,89.521 216.418 C 86.864 217.151,84.154 214.118,86.500 213.036 C 87.050 212.782,84.945 213.011,82.896 213.427 C 80.697 213.874,79.416 211.124,81.275 209.945 C 82.013 209.477,80.901 209.530,79.676 210.021 M136.325 209.945 C 138.184 211.124,136.903 213.874,134.704 213.427 C 132.087 212.895,130.607 212.754,131.070 213.079 C 133.206 214.583,130.940 217.105,128.038 216.453 C 126.525 216.113,126.446 216.138,126.824 216.845 C 127.632 218.355,132.640 217.980,134.098 216.300 C 134.702 215.604,135.962 214.667,136.898 214.218 C 139.803 212.822,139.363 209.566,136.274 209.606 C 135.948 209.610,135.965 209.717,136.325 209.945 M92.724 216.271 C 91.937 216.479,91.621 218.215,92.142 219.473 C 92.933 221.382,97.289 221.700,101.722 220.172 C 104.279 219.291,103.979 219.172,100.392 219.645 C 95.918 220.235,94.234 219.773,94.077 217.911 C 93.961 216.531,94.025 216.445,95.277 216.291 C 96.472 216.144,96.445 216.126,95.000 216.110 C 94.120 216.101,93.096 216.173,92.724 216.271 M122.624 216.353 C 123.713 216.573,123.846 216.753,123.824 217.983 C 123.792 219.827,122.121 220.272,117.470 219.678 C 113.542 219.177,113.273 219.287,116.074 220.247 C 119.072 221.276,124.015 221.270,125.157 220.238 C 127.212 218.381,125.916 215.950,122.926 216.053 C 121.445 216.104,121.436 216.113,122.624 216.353 M195.454 227.629 C 193.584 229.100,194.490 232.684,196.522 231.858 C 196.878 231.713,196.872 231.655,196.500 231.632 C 195.652 231.578,195.881 228.892,196.774 228.414 C 199.364 227.028,204.000 228.161,204.000 230.181 C 204.000 230.925,203.775 231.624,203.500 231.735 C 203.117 231.890,203.123 231.944,203.526 231.968 C 205.720 232.100,206.424 229.106,204.546 227.629 C 203.663 226.934,202.927 226.800,200.000 226.800 C 197.073 226.800,196.337 226.934,195.454 227.629 M189.692 230.268 C 189.412 230.380,188.914 230.993,188.585 231.629 C 188.256 232.266,187.469 233.054,186.837 233.381 C 186.197 233.712,185.494 234.529,185.252 235.224 C 185.012 235.910,184.363 236.829,183.808 237.265 C 182.691 238.143,182.585 238.690,183.247 240.144 C 183.697 241.130,185.431 241.797,185.837 241.140 C 185.957 240.946,186.251 240.908,186.489 241.055 C 186.739 241.209,186.809 241.139,186.655 240.889 C 186.508 240.651,186.553 240.353,186.756 240.227 C 186.959 240.102,187.035 239.656,186.925 239.236 C 186.791 238.724,186.968 238.410,187.463 238.283 C 188.124 238.112,188.128 238.088,187.500 238.046 C 186.254 237.964,186.518 234.800,187.771 234.800 C 189.014 234.800,190.000 233.814,190.000 232.571 C 190.000 231.402,191.923 231.180,192.971 232.229 C 193.517 232.774,193.600 232.778,193.600 232.258 C 193.600 230.953,191.123 229.692,189.692 230.268 M207.454 230.829 C 206.874 231.285,206.400 231.928,206.400 232.258 C 206.400 232.778,206.483 232.774,207.029 232.229 C 208.077 231.180,210.000 231.402,210.000 232.571 C 210.000 233.106,210.283 233.826,210.629 234.171 C 210.974 234.517,211.694 234.800,212.229 234.800 C 213.478 234.800,213.723 237.805,212.500 238.124 C 211.871 238.289,211.876 238.312,212.547 238.354 C 213.088 238.387,213.236 238.620,213.084 239.200 C 212.969 239.639,213.041 240.102,213.244 240.227 C 213.447 240.353,213.492 240.651,213.345 240.889 C 213.191 241.139,213.261 241.209,213.511 241.055 C 213.749 240.908,214.043 240.946,214.163 241.140 C 214.569 241.797,216.303 241.130,216.753 240.144 C 217.415 238.690,217.309 238.143,216.192 237.265 C 215.637 236.829,214.988 235.910,214.748 235.224 C 214.506 234.529,213.803 233.712,213.163 233.381 C 212.531 233.054,211.747 232.271,211.422 231.642 C 210.473 229.808,209.107 229.528,207.454 230.829 M192.458 234.207 C 191.940 234.753,191.702 235.200,191.929 235.200 C 192.444 235.200,193.600 234.073,193.600 233.571 C 193.600 233.046,193.514 233.094,192.458 234.207 M206.413 233.471 C 206.397 234.066,207.510 235.200,208.109 235.200 C 208.385 235.200,208.342 235.006,207.998 234.700 C 207.689 234.425,207.209 233.930,206.931 233.600 C 206.611 233.221,206.421 233.173,206.413 233.471 M189.258 237.407 C 188.740 237.953,188.502 238.400,188.729 238.400 C 189.244 238.400,190.400 237.273,190.400 236.771 C 190.400 236.246,190.314 236.294,189.258 237.407 M209.613 236.671 C 209.597 237.266,210.710 238.400,211.309 238.400 C 211.585 238.400,211.542 238.206,211.198 237.900 C 210.889 237.625,210.409 237.130,210.131 236.800 C 209.811 236.421,209.621 236.373,209.613 236.671 M179.462 243.531 C 178.519 244.573,178.642 245.782,179.823 247.078 L 180.845 248.200 180.546 247.200 C 179.840 244.834,180.082 244.210,181.759 244.072 C 182.736 243.992,183.444 244.142,183.653 244.472 C 183.916 244.887,183.989 244.867,183.994 244.380 C 184.010 242.752,180.724 242.137,179.462 243.531 M216.480 243.280 C 216.216 243.544,216.003 244.039,216.006 244.380 C 216.011 244.867,216.084 244.887,216.347 244.472 C 216.556 244.142,217.264 243.992,218.241 244.072 C 219.918 244.210,220.160 244.834,219.454 247.200 L 219.155 248.200 220.177 247.078 C 222.491 244.538,218.905 240.855,216.480 243.280 M176.470 249.726 C 175.433 250.829,175.375 251.684,176.246 253.014 C 177.172 254.428,177.599 254.229,177.147 252.595 C 176.934 251.822,176.869 251.012,177.003 250.795 C 177.358 250.221,180.296 250.308,180.535 250.900 C 180.660 251.210,180.749 251.145,180.768 250.729 C 180.857 248.835,177.945 248.155,176.470 249.726 M219.829 249.429 C 219.483 249.774,219.214 250.359,219.232 250.729 C 219.251 251.145,219.340 251.210,219.465 250.900 C 219.704 250.308,222.642 250.221,222.997 250.795 C 223.131 251.012,223.066 251.822,222.853 252.595 C 222.401 254.229,222.828 254.428,223.754 253.014 C 225.460 250.410,222.004 247.253,219.829 249.429 M173.190 256.500 C 172.460 257.281,172.383 257.701,172.610 259.672 C 172.898 262.169,172.618 263.600,171.843 263.600 C 169.784 263.600,168.595 267.659,170.135 269.430 L 171.152 270.600 170.727 268.900 C 170.125 266.488,172.242 264.802,173.851 266.411 C 174.133 266.693,174.209 265.307,174.092 262.011 L 173.921 257.200 175.533 257.200 C 176.886 257.200,177.172 257.344,177.318 258.100 C 177.452 258.795,177.503 258.723,177.546 257.780 C 177.647 255.502,174.882 254.690,173.190 256.500 M222.880 256.080 C 222.616 256.344,222.425 257.109,222.454 257.780 C 222.497 258.723,222.548 258.795,222.682 258.100 C 222.828 257.344,223.114 257.200,224.467 257.200 L 226.079 257.200 225.908 262.011 C 225.791 265.307,225.867 266.693,226.149 266.411 C 227.758 264.802,229.875 266.488,229.273 268.900 L 228.848 270.600 229.865 269.430 C 231.405 267.659,230.216 263.600,228.157 263.600 C 227.382 263.600,227.102 262.169,227.390 259.672 C 227.770 256.376,224.883 254.077,222.880 256.080 M166.870 272.126 C 166.391 272.635,166.000 273.259,166.000 273.512 C 166.000 273.765,165.486 274.563,164.857 275.286 C 164.052 276.211,163.650 277.183,163.498 278.570 C 163.313 280.262,163.055 280.729,161.670 281.880 C 160.378 282.952,160.085 283.437,160.201 284.310 C 160.280 284.909,160.357 285.535,160.372 285.700 C 160.475 286.811,161.200 285.693,161.200 284.424 C 161.200 282.892,161.242 282.845,162.700 282.724 C 164.095 282.609,164.209 282.502,164.329 281.200 C 164.493 279.410,164.802 279.120,166.543 279.120 L 167.966 279.120 167.730 277.260 C 167.201 273.113,167.229 273.014,168.959 272.872 C 169.936 272.792,170.644 272.942,170.853 273.272 C 171.110 273.677,171.189 273.643,171.194 273.129 C 171.211 271.222,168.343 270.557,166.870 272.126 M229.429 271.829 C 229.083 272.174,228.803 272.759,228.806 273.129 C 228.811 273.643,228.890 273.677,229.147 273.272 C 229.356 272.942,230.064 272.792,231.041 272.872 C 232.771 273.014,232.799 273.113,232.270 277.260 L 232.034 279.120 233.457 279.120 C 235.198 279.120,235.507 279.410,235.671 281.200 C 235.791 282.502,235.905 282.609,237.300 282.724 C 238.758 282.845,238.800 282.892,238.800 284.424 C 238.800 285.693,239.525 286.811,239.628 285.700 C 239.643 285.535,239.720 284.909,239.799 284.310 C 239.915 283.437,239.622 282.952,238.330 281.880 C 236.945 280.729,236.687 280.262,236.502 278.570 C 236.350 277.183,235.948 276.211,235.143 275.286 C 234.514 274.563,234.000 273.740,234.000 273.456 C 234.000 271.755,230.683 270.574,229.429 271.829 M153.862 285.131 C 152.298 286.860,153.876 291.057,155.485 289.448 C 155.622 289.312,155.433 289.200,155.067 289.200 C 154.254 289.200,154.114 286.625,154.900 286.136 C 155.528 285.745,157.239 285.946,157.900 286.488 C 158.243 286.769,158.400 286.766,158.400 286.478 C 158.400 284.916,154.977 283.900,153.862 285.131 M242.654 285.229 C 242.074 285.685,241.600 286.247,241.600 286.478 C 241.600 286.766,241.757 286.769,242.100 286.488 C 242.761 285.946,244.472 285.745,245.100 286.136 C 245.886 286.625,245.746 289.200,244.933 289.200 C 244.567 289.200,244.378 289.312,244.515 289.448 C 245.408 290.341,246.800 289.127,246.800 287.454 C 246.800 284.600,244.811 283.532,242.654 285.229 M144.727 288.214 C 141.995 289.698,143.019 292.841,146.200 292.734 C 147.314 292.696,147.479 292.631,146.741 292.517 C 145.872 292.384,145.653 292.107,145.521 290.971 C 145.317 289.228,147.426 288.393,150.196 289.121 C 152.255 289.662,152.424 289.447,150.745 288.423 C 149.156 287.454,146.310 287.355,144.727 288.214 M157.314 288.642 C 156.827 289.169,156.589 289.600,156.786 289.600 C 157.256 289.600,158.400 288.445,158.400 287.971 C 158.400 287.488,158.358 287.513,157.314 288.642 M241.612 287.871 C 241.605 288.131,241.883 288.626,242.229 288.971 C 242.574 289.317,243.069 289.595,243.329 289.588 C 243.588 289.581,243.491 289.395,243.113 289.175 C 242.735 288.955,242.245 288.465,242.025 288.087 C 241.805 287.709,241.619 287.612,241.612 287.871 M249.255 288.423 C 247.576 289.447,247.745 289.662,249.804 289.121 C 252.574 288.393,254.683 289.228,254.479 290.971 C 254.347 292.107,254.128 292.384,253.259 292.517 C 252.521 292.631,252.686 292.696,253.800 292.734 C 255.670 292.797,256.190 292.528,256.573 291.300 C 257.523 288.255,252.664 286.345,249.255 288.423 M24.012 294.271 C 23.996 294.881,25.119 296.004,25.729 295.988 C 25.988 295.981,25.891 295.795,25.513 295.575 C 25.135 295.355,24.645 294.865,24.425 294.487 C 24.205 294.109,24.019 294.012,24.012 294.271 M374.914 295.042 C 374.427 295.569,374.189 296.000,374.386 296.000 C 374.856 296.000,376.000 294.845,376.000 294.371 C 376.000 293.888,375.958 293.913,374.914 295.042 " stroke="none" fill="#2d2d2d" fill-rule="evenodd"></path><path id="path2" d="M24.982 104.982 C 24.337 105.627,24.058 106.279,24.170 106.882 C 24.264 107.387,24.354 108.095,24.370 108.455 C 24.430 109.774,26.801 109.626,28.213 108.213 C 29.626 106.801,29.774 104.430,28.455 104.370 C 28.095 104.354,27.387 104.264,26.882 104.170 C 26.279 104.058,25.627 104.337,24.982 104.982 M371.742 104.300 C 369.033 104.756,371.591 109.698,374.328 109.296 C 375.145 109.176,375.611 108.875,375.630 108.455 C 375.646 108.095,375.733 107.411,375.822 106.935 C 376.159 105.141,374.212 103.885,371.742 104.300 M95.400 138.749 C 93.891 139.069,93.284 142.000,94.726 142.000 C 95.152 142.000,96.108 142.120,96.850 142.267 C 97.971 142.490,98.130 142.439,97.785 141.967 C 97.557 141.655,97.319 140.905,97.256 140.300 L 97.143 139.200 100.071 139.147 C 102.985 139.093,102.990 139.092,101.000 138.782 C 98.626 138.412,97.034 138.403,95.400 138.749 M116.000 138.800 C 113.900 139.057,113.952 139.073,117.153 139.135 L 120.505 139.200 120.287 140.829 L 120.068 142.459 121.734 142.180 C 123.616 141.866,124.053 141.430,123.904 140.016 C 123.745 138.505,121.379 138.141,116.000 138.800 M86.900 142.012 C 85.895 142.417,85.643 144.283,86.480 145.120 C 87.307 145.947,87.600 145.654,87.600 144.000 C 87.600 142.425,87.623 142.399,89.100 142.360 C 90.439 142.325,90.492 142.286,89.600 142.000 C 88.288 141.580,87.972 141.581,86.900 142.012 M127.800 142.000 C 127.158 142.276,127.297 142.349,128.500 142.372 C 129.979 142.400,130.000 142.423,130.000 144.000 C 130.000 145.654,130.293 145.947,131.120 145.120 C 132.967 143.273,130.416 140.876,127.800 142.000 M80.834 145.359 C 79.862 146.530,80.933 148.846,82.400 148.747 C 82.825 148.719,82.796 148.654,82.300 148.524 C 80.781 148.127,81.386 145.600,83.000 145.600 C 84.055 145.600,84.408 145.773,84.432 146.300 C 84.455 146.816,84.522 146.851,84.687 146.435 C 85.202 145.130,81.810 144.183,80.834 145.359 M133.421 145.335 C 133.019 145.629,132.790 146.124,132.913 146.435 C 133.078 146.851,133.145 146.816,133.168 146.300 C 133.192 145.773,133.545 145.600,134.600 145.600 C 136.214 145.600,136.819 148.127,135.300 148.524 C 134.804 148.654,134.775 148.719,135.200 148.747 C 136.667 148.846,137.738 146.530,136.766 145.359 C 136.178 144.650,134.376 144.637,133.421 145.335 M266.926 147.203 C 265.908 147.613,265.404 148.455,265.014 150.400 C 264.860 151.170,264.214 152.541,263.580 153.447 C 262.945 154.353,262.306 155.883,262.158 156.847 C 261.850 158.861,261.419 159.849,260.321 161.056 C 259.893 161.527,259.210 163.207,258.803 164.790 C 258.396 166.372,257.612 168.327,257.060 169.133 C 256.509 169.940,255.869 171.645,255.638 172.923 C 255.180 175.460,255.039 175.800,253.944 177.022 C 253.539 177.474,252.861 179.199,252.437 180.855 C 252.014 182.511,251.211 184.537,250.654 185.358 C 250.097 186.179,249.518 187.694,249.368 188.725 C 249.218 189.756,248.714 191.299,248.247 192.152 C 247.781 193.006,247.169 194.123,246.887 194.635 C 246.604 195.146,246.268 196.698,246.140 198.082 C 245.793 201.832,246.226 202.109,252.162 201.935 C 258.052 201.763,258.539 201.391,259.585 196.275 C 260.299 192.778,261.427 190.812,263.349 189.714 C 264.822 188.873,279.451 189.026,281.192 189.901 C 283.069 190.844,284.250 192.736,284.572 195.318 C 284.828 197.363,286.744 200.809,288.108 201.675 C 288.378 201.847,290.525 201.991,292.878 201.994 C 298.398 202.002,299.764 201.199,298.716 198.562 C 298.375 197.703,297.965 196.190,297.805 195.200 C 297.645 194.210,297.063 192.800,296.511 192.066 C 295.959 191.333,295.166 189.364,294.748 187.691 C 294.330 186.018,293.742 184.368,293.442 184.025 C 292.480 182.923,291.711 181.051,291.431 179.125 C 291.281 178.094,290.712 176.593,290.167 175.789 C 289.622 174.986,288.846 172.916,288.444 171.189 C 287.972 169.161,287.340 167.606,286.657 166.794 C 286.075 166.104,285.499 165.057,285.377 164.469 C 284.626 160.867,284.255 159.693,283.407 158.232 C 282.886 157.335,282.162 155.439,281.798 154.020 C 281.434 152.601,280.701 150.922,280.168 150.289 C 279.636 149.656,279.200 148.893,279.200 148.592 C 279.200 146.986,270.039 145.949,266.926 147.203 M303.618 147.582 C 302.811 148.389,302.800 148.743,302.800 174.400 C 302.800 205.186,302.138 202.000,308.538 202.000 C 314.304 202.000,314.000 202.539,314.000 192.330 C 314.000 182.173,313.601 182.800,320.070 182.800 C 325.270 182.800,325.712 183.011,326.216 185.729 C 326.372 186.569,326.936 187.776,327.470 188.410 C 328.004 189.045,328.761 190.720,329.153 192.133 C 329.545 193.547,330.245 195.185,330.708 195.774 C 331.172 196.363,331.846 197.735,332.207 198.822 C 333.183 201.758,333.736 202.000,339.489 202.000 C 345.849 202.000,346.569 201.502,345.559 197.800 C 345.320 196.920,344.781 195.829,344.362 195.375 C 343.944 194.921,343.314 193.571,342.962 192.375 C 342.611 191.179,341.873 189.604,341.323 188.876 C 340.772 188.147,340.152 186.887,339.944 186.076 C 339.409 183.986,338.340 181.600,337.939 181.600 C 336.922 181.600,338.468 179.215,341.134 176.672 C 341.868 175.973,342.732 174.772,343.053 174.005 C 343.375 173.238,344.035 172.189,344.519 171.674 C 345.334 170.808,345.410 170.275,345.535 164.610 L 345.670 158.483 344.235 156.397 C 343.446 155.249,342.800 154.087,342.800 153.813 C 342.800 153.133,338.943 149.666,336.555 148.200 L 334.600 147.000 319.518 146.882 C 304.779 146.767,304.417 146.783,303.618 147.582 M276.960 147.840 C 277.751 148.144,280.505 153.837,281.390 157.000 C 281.760 158.320,282.408 159.995,282.831 160.723 C 283.254 161.450,283.804 162.890,284.053 163.923 C 284.302 164.955,285.004 166.700,285.613 167.800 C 286.223 168.900,287.119 171.240,287.606 173.000 C 288.093 174.760,288.899 176.920,289.396 177.800 C 289.894 178.680,290.516 180.300,290.780 181.400 C 291.043 182.500,291.762 184.300,292.377 185.400 C 292.992 186.500,293.710 188.300,293.974 189.400 C 294.237 190.500,294.882 192.136,295.406 193.036 C 297.038 195.838,297.899 199.992,296.987 200.659 C 295.274 201.912,288.000 201.145,288.000 199.712 C 288.000 199.492,287.566 198.672,287.036 197.890 C 286.505 197.109,285.871 195.504,285.626 194.324 C 284.484 188.824,283.524 188.400,272.200 188.400 C 260.644 188.400,260.014 188.705,258.586 194.981 C 257.397 200.209,256.221 201.200,251.210 201.200 C 246.500 201.200,245.989 199.953,248.591 194.818 C 249.126 193.762,249.774 192.021,250.032 190.949 C 250.289 189.877,250.907 188.280,251.405 187.400 C 251.903 186.520,252.711 184.450,253.200 182.800 C 253.689 181.150,254.506 179.080,255.015 178.200 C 255.524 177.320,256.235 175.454,256.594 174.052 C 256.953 172.651,257.598 171.030,258.027 170.450 C 258.456 169.869,259.181 168.072,259.638 166.456 C 260.095 164.840,260.980 162.712,261.605 161.728 C 262.229 160.743,262.859 159.234,263.004 158.374 C 263.150 157.514,263.728 156.133,264.290 155.305 C 264.852 154.477,265.692 152.630,266.156 151.200 C 266.911 148.873,267.147 148.550,268.400 148.123 C 269.863 147.624,275.879 147.425,276.960 147.840 M333.800 148.487 C 334.460 148.865,335.793 149.561,336.763 150.034 C 338.975 151.112,341.036 153.267,342.088 155.600 C 342.534 156.590,343.191 157.734,343.549 158.142 C 345.781 160.686,343.601 172.783,340.402 175.600 C 336.425 179.103,335.517 180.965,336.954 182.673 C 337.479 183.297,338.288 185.082,338.752 186.640 C 339.216 188.198,339.949 189.792,340.381 190.183 C 340.813 190.574,341.472 191.818,341.844 192.947 C 342.217 194.076,343.057 196.026,343.711 197.280 C 345.550 200.803,344.322 201.582,337.721 201.083 C 334.186 200.815,333.814 200.560,333.194 197.976 C 332.932 196.884,332.308 195.387,331.808 194.650 C 331.307 193.912,330.679 192.609,330.412 191.754 C 329.554 189.012,326.358 182.806,325.593 182.396 C 325.186 182.178,322.611 182.000,319.871 182.000 C 312.681 182.000,313.119 181.383,312.889 191.835 C 312.672 201.653,312.875 201.204,308.651 201.187 C 303.485 201.167,304.000 204.136,304.000 174.400 C 304.000 150.385,304.046 148.653,304.700 148.148 C 305.865 147.249,332.173 147.556,333.800 148.487 M71.756 152.171 C 71.374 153.166,71.775 154.587,72.475 154.721 C 73.346 154.886,74.800 153.435,74.800 152.400 C 74.800 151.416,72.123 151.215,71.756 152.171 M142.800 152.376 C 142.800 153.431,144.246 154.888,145.125 154.719 C 146.688 154.418,145.982 151.815,144.300 151.676 C 143.012 151.569,142.800 151.668,142.800 152.376 M314.006 157.115 C 313.178 157.785,313.110 158.241,312.904 164.475 L 312.684 171.121 313.724 172.160 C 314.764 173.200,314.764 173.200,321.682 173.199 C 329.501 173.197,329.677 173.144,333.012 169.809 C 336.779 166.042,334.421 159.013,328.656 156.821 C 326.623 156.048,315.036 156.281,314.006 157.115 M326.400 157.547 C 330.508 158.231,332.933 161.038,332.933 165.109 L 332.933 168.050 331.133 169.776 C 328.439 172.357,328.282 172.400,321.558 172.400 C 313.508 172.400,314.000 172.890,314.000 164.870 C 314.000 156.863,313.744 157.192,319.962 157.224 C 322.513 157.237,325.410 157.382,326.400 157.547 M64.972 161.328 C 64.486 162.596,65.379 164.509,66.513 164.630 C 67.945 164.782,68.723 163.938,68.644 162.317 C 68.572 160.838,65.480 160.005,64.972 161.328 M149.073 161.100 C 148.715 161.719,149.096 164.089,149.606 164.404 C 151.285 165.441,153.392 163.320,152.637 161.351 C 152.413 160.769,149.389 160.555,149.073 161.100 M67.832 162.660 C 67.655 164.320,65.600 164.424,65.600 162.773 C 65.600 161.742,65.742 161.600,66.773 161.600 C 67.803 161.600,67.932 161.729,67.832 162.660 M152.000 162.773 C 152.000 164.424,149.945 164.320,149.768 162.660 C 149.668 161.729,149.797 161.600,150.827 161.600 C 151.858 161.600,152.000 161.742,152.000 162.773 M271.696 162.392 C 270.163 163.334,268.949 165.170,268.386 167.400 C 268.164 168.280,267.446 170.080,266.791 171.400 C 265.240 174.524,265.102 178.006,266.489 178.977 C 268.087 180.097,277.249 179.863,278.639 178.668 L 279.722 177.736 278.720 174.768 C 278.168 173.136,277.338 170.900,276.873 169.800 C 276.409 168.700,275.618 166.450,275.115 164.800 C 274.099 161.470,273.679 161.174,271.696 162.392 M274.768 168.047 C 275.302 170.366,275.952 172.103,276.554 172.818 C 277.883 174.398,278.333 177.559,277.336 178.319 C 276.453 178.992,267.784 178.744,267.066 178.026 C 266.369 177.329,266.784 174.458,267.799 172.964 C 268.312 172.208,268.848 170.827,268.990 169.895 C 269.404 167.183,269.918 166.254,271.507 165.343 C 273.782 164.039,273.860 164.104,274.768 168.047 M62.014 167.974 C 61.538 168.863,61.531 171.336,62.000 172.800 C 62.275 173.659,62.326 173.566,62.360 172.147 C 62.402 170.426,63.754 169.514,64.766 170.526 C 65.305 171.065,65.680 170.094,65.440 168.784 C 65.341 168.243,65.246 167.665,65.230 167.500 C 65.161 166.808,62.422 167.211,62.014 167.974 M152.370 167.500 C 152.354 167.665,152.259 168.243,152.160 168.784 C 151.920 170.094,152.295 171.065,152.834 170.526 C 153.846 169.514,155.198 170.426,155.240 172.147 C 155.274 173.566,155.325 173.659,155.600 172.800 C 156.069 171.336,156.062 168.863,155.586 167.974 C 155.178 167.211,152.439 166.808,152.370 167.500 M61.900 185.950 C 61.119 189.463,61.752 191.200,63.814 191.200 C 64.576 191.200,65.213 191.065,65.230 190.900 C 65.246 190.735,65.341 190.157,65.440 189.616 C 65.680 188.306,65.305 187.335,64.766 187.874 C 63.779 188.861,62.447 187.980,62.321 186.257 L 62.200 184.600 61.900 185.950 M155.240 186.253 C 155.198 187.974,153.846 188.886,152.834 187.874 C 152.295 187.335,151.920 188.306,152.160 189.616 C 152.259 190.157,152.354 190.735,152.370 190.900 C 152.439 191.592,155.178 191.189,155.586 190.426 C 156.062 189.537,156.069 187.064,155.600 185.600 C 155.325 184.741,155.274 184.834,155.240 186.253 M65.323 194.256 C 64.494 196.417,64.952 197.400,66.788 197.400 C 68.631 197.400,69.381 195.987,68.389 194.382 C 67.959 193.686,65.579 193.588,65.323 194.256 M149.447 194.210 C 148.148 195.509,148.867 197.389,150.714 197.523 C 152.668 197.665,153.029 197.197,152.510 195.192 C 152.130 193.726,150.465 193.192,149.447 194.210 M67.832 195.740 C 67.932 196.671,67.803 196.800,66.773 196.800 C 65.742 196.800,65.600 196.658,65.600 195.627 C 65.600 193.976,67.655 194.080,67.832 195.740 M152.000 195.642 C 152.000 196.656,151.854 196.800,150.827 196.800 C 149.779 196.800,149.670 196.683,149.800 195.700 C 149.880 195.095,149.957 194.600,149.973 194.600 C 149.988 194.600,150.450 194.574,151.000 194.542 C 151.850 194.493,152.000 194.659,152.000 195.642 M71.756 204.171 C 71.189 205.647,71.764 206.597,73.300 206.724 C 74.588 206.831,74.800 206.732,74.800 206.024 C 74.800 204.370,72.270 202.830,71.756 204.171 M143.625 204.375 C 142.211 205.789,142.523 206.871,144.300 206.724 C 145.723 206.606,145.800 206.528,145.800 205.205 C 145.800 203.514,144.849 203.151,143.625 204.375 M81.286 209.939 C 80.565 210.396,80.277 212.370,80.834 213.041 C 81.810 214.217,85.202 213.270,84.687 211.965 C 84.522 211.549,84.455 211.584,84.432 212.100 C 84.408 212.627,84.055 212.800,83.000 212.800 C 81.386 212.800,80.781 210.273,82.300 209.876 C 82.796 209.746,82.825 209.681,82.400 209.653 C 82.070 209.630,81.569 209.759,81.286 209.939 M135.300 209.876 C 136.819 210.273,136.214 212.800,134.600 212.800 C 133.545 212.800,133.192 212.627,133.168 212.100 C 133.145 211.584,133.078 211.549,132.913 211.965 C 132.398 213.270,135.790 214.217,136.766 213.041 C 137.738 211.870,136.667 209.554,135.200 209.653 C 134.775 209.681,134.804 209.746,135.300 209.876 M86.500 213.065 C 84.204 213.991,86.861 217.155,89.333 216.439 L 90.600 216.072 89.100 216.036 C 87.623 216.001,87.600 215.976,87.600 214.400 C 87.600 212.819,87.478 212.670,86.500 213.065 M130.000 214.400 C 130.000 215.994,129.994 216.000,128.433 216.000 C 127.572 216.000,126.775 215.816,126.663 215.590 C 126.551 215.365,126.505 215.404,126.559 215.678 C 126.719 216.478,129.517 216.885,130.741 216.287 C 132.242 215.552,131.898 212.839,130.300 212.806 C 130.135 212.803,130.000 213.520,130.000 214.400 M95.277 216.291 C 94.024 216.446,93.961 216.530,94.077 217.917 C 94.229 219.727,95.997 220.243,100.052 219.663 L 102.600 219.299 99.878 219.249 L 97.156 219.200 97.320 217.900 C 97.415 217.146,97.689 216.646,97.972 216.710 C 98.240 216.770,98.345 216.635,98.206 216.410 C 97.952 215.999,97.724 215.989,95.277 216.291 M120.200 216.841 C 120.361 217.368,120.493 217.890,120.493 218.000 C 120.500 219.082,120.230 219.203,117.700 219.254 L 115.000 219.307 117.905 219.692 C 122.238 220.266,123.788 219.794,123.841 217.885 C 123.873 216.729,123.730 216.400,123.191 216.400 C 122.811 216.400,121.917 216.283,121.204 216.141 C 119.981 215.896,119.925 215.935,120.200 216.841 M196.700 228.432 C 195.789 228.962,195.740 231.415,196.633 231.757 C 196.981 231.891,198.496 232.000,200.000 232.000 C 203.590 232.000,204.000 231.813,204.000 230.171 C 204.000 228.172,199.136 227.013,196.700 228.432 M190.000 232.571 C 190.000 233.814,189.014 234.800,187.771 234.800 C 186.448 234.800,186.290 237.773,187.595 238.115 C 188.529 238.359,190.192 236.832,190.197 235.725 C 190.199 235.326,190.470 234.993,190.800 234.985 C 192.436 234.945,193.878 233.135,192.985 232.242 C 191.925 231.182,190.000 231.394,190.000 232.571 M207.015 232.242 C 206.122 233.135,207.564 234.945,209.200 234.985 C 209.530 234.993,209.801 235.326,209.803 235.725 C 209.808 236.832,211.471 238.359,212.405 238.115 C 213.710 237.773,213.552 234.800,212.229 234.800 C 211.694 234.800,210.974 234.517,210.629 234.171 C 210.283 233.826,210.000 233.106,210.000 232.571 C 210.000 231.394,208.075 231.182,207.015 232.242 M180.151 244.584 C 180.028 244.904,180.136 245.801,180.392 246.577 C 181.309 249.355,184.619 247.511,183.760 244.700 C 183.484 243.795,180.490 243.699,180.151 244.584 M216.240 244.700 C 215.381 247.511,218.691 249.355,219.608 246.577 C 220.268 244.575,219.918 244.000,218.040 244.000 C 216.878 244.000,216.397 244.187,216.240 244.700 M177.006 250.791 C 176.392 251.784,177.603 254.391,178.639 254.305 C 180.208 254.175,181.064 252.748,180.560 251.100 C 180.323 250.325,177.448 250.075,177.006 250.791 M219.440 251.100 C 218.936 252.748,219.792 254.175,221.361 254.305 C 222.397 254.391,223.608 251.784,222.994 250.791 C 222.552 250.075,219.677 250.325,219.440 251.100 M174.057 260.300 C 174.100 262.668,174.171 263.023,174.357 261.804 C 174.610 260.144,175.627 259.467,176.522 260.362 C 177.413 261.253,177.482 261.020,177.252 257.900 C 177.212 257.359,176.837 257.200,175.600 257.200 L 174.000 257.200 174.057 260.300 M222.748 257.900 C 222.518 261.020,222.587 261.253,223.478 260.362 C 224.373 259.467,225.390 260.144,225.643 261.804 C 225.829 263.023,225.900 262.668,225.943 260.300 L 226.000 257.200 224.400 257.200 C 223.163 257.200,222.788 257.359,222.748 257.900 M170.807 266.591 C 169.390 268.299,171.706 271.170,173.572 270.018 C 174.261 269.591,174.519 267.225,173.950 266.540 C 173.353 265.820,171.421 265.852,170.807 266.591 M226.050 266.540 C 225.481 267.225,225.739 269.591,226.428 270.018 C 228.294 271.170,230.610 268.299,229.193 266.591 C 228.579 265.852,226.647 265.820,226.050 266.540 M172.933 268.154 C 173.277 268.679,173.457 269.210,173.333 269.333 C 172.979 269.687,171.200 268.370,171.200 267.754 C 171.200 266.870,172.251 267.113,172.933 268.154 M228.800 267.754 C 228.800 268.370,227.021 269.687,226.667 269.333 C 226.313 268.979,227.630 267.200,228.246 267.200 C 228.551 267.200,228.800 267.449,228.800 267.754 M167.336 273.422 C 166.835 274.727,167.753 276.597,168.915 276.640 C 170.525 276.700,171.487 275.223,170.960 273.500 C 170.675 272.566,167.689 272.502,167.336 273.422 M229.040 273.500 C 228.513 275.223,229.475 276.700,231.085 276.640 C 232.247 276.597,233.165 274.727,232.664 273.422 C 232.311 272.502,229.325 272.566,229.040 273.500 M165.600 279.189 C 164.793 279.386,164.561 279.737,164.400 281.016 C 164.211 282.516,164.120 282.607,162.700 282.724 C 161.213 282.847,161.201 282.862,161.267 284.524 L 161.334 286.200 161.491 284.700 C 161.643 283.247,161.698 283.200,163.224 283.200 C 164.796 283.200,164.800 283.196,164.800 281.600 C 164.800 280.043,164.837 280.000,166.176 280.000 C 167.665 280.000,168.428 279.399,167.296 279.118 C 166.913 279.023,166.150 279.055,165.600 279.189 M232.695 279.108 C 231.533 279.359,232.344 280.000,233.824 280.000 C 235.163 280.000,235.200 280.043,235.200 281.600 C 235.200 283.196,235.204 283.200,236.776 283.200 C 238.302 283.200,238.357 283.247,238.509 284.700 L 238.666 286.200 238.733 284.524 C 238.799 282.862,238.787 282.847,237.300 282.724 C 235.882 282.607,235.789 282.514,235.600 281.027 C 235.393 279.396,234.401 278.741,232.695 279.108 M154.809 286.151 C 154.016 286.944,154.323 289.086,155.265 289.333 C 156.923 289.766,158.959 287.756,158.015 286.618 C 157.444 285.930,155.337 285.623,154.809 286.151 M243.529 285.912 C 242.044 286.100,241.424 286.923,241.981 287.965 C 243.088 290.032,245.600 289.919,245.600 287.802 C 245.600 286.268,245.005 285.725,243.529 285.912 M146.579 289.227 C 145.173 289.636,144.969 292.394,146.344 292.405 C 146.705 292.408,147.366 292.509,147.813 292.629 C 148.549 292.827,148.611 292.694,148.471 291.224 L 148.316 289.600 149.858 289.572 C 151.085 289.550,151.237 289.474,150.600 289.200 C 149.585 288.764,148.139 288.774,146.579 289.227 M249.400 289.200 C 248.763 289.474,248.915 289.550,250.142 289.572 L 251.684 289.600 251.529 291.224 C 251.389 292.694,251.451 292.827,252.187 292.629 C 252.634 292.509,253.295 292.408,253.656 292.405 C 254.107 292.402,254.364 291.961,254.476 290.997 C 254.691 289.155,251.847 288.149,249.400 289.200 M25.500 290.687 C 24.819 290.790,24.389 291.109,24.370 291.527 C 24.354 291.897,24.264 292.613,24.170 293.118 C 23.938 294.365,25.635 296.062,26.882 295.830 C 27.387 295.736,28.095 295.646,28.455 295.630 C 29.805 295.568,29.622 293.195,28.155 291.728 C 27.424 290.998,26.776 290.427,26.713 290.460 C 26.651 290.493,26.105 290.595,25.500 290.687 M371.759 291.777 C 370.374 293.207,370.243 295.571,371.545 295.630 C 371.905 295.646,372.613 295.736,373.118 295.830 C 374.972 296.174,376.980 292.001,375.462 290.957 C 374.488 290.288,372.851 290.650,371.759 291.777 M122.000 292.358 C 120.394 292.805,120.545 295.295,122.200 295.649 C 124.341 296.107,132.875 296.044,132.583 295.573 C 132.438 295.338,132.085 295.235,131.799 295.345 C 131.475 295.469,131.328 295.291,131.409 294.872 C 131.480 294.503,131.553 293.885,131.569 293.500 C 131.596 292.893,132.063 292.794,135.100 292.754 C 138.042 292.715,138.345 292.655,137.000 292.377 C 135.077 291.979,123.414 291.965,122.000 292.358 M262.800 292.400 C 261.760 292.619,262.300 292.708,264.900 292.747 C 267.934 292.793,268.404 292.893,268.431 293.500 C 268.447 293.885,268.520 294.503,268.591 294.872 C 268.672 295.291,268.525 295.469,268.201 295.345 C 267.915 295.235,267.562 295.338,267.417 295.573 C 267.125 296.044,275.659 296.107,277.800 295.649 C 279.455 295.295,279.606 292.805,278.000 292.358 C 276.678 291.990,264.588 292.024,262.800 292.400 " stroke="none" fill="#666262" fill-rule="evenodd"></path><path id="path3" d="M97.279 140.400 C 97.331 141.085,97.560 141.795,97.787 141.976 C 98.323 142.405,100.860 142.021,100.572 141.555 C 100.452 141.360,100.533 141.200,100.753 141.200 C 100.974 141.200,101.091 140.870,101.013 140.467 C 100.930 140.039,101.104 139.733,101.429 139.733 C 101.849 139.733,101.878 139.866,101.545 140.267 C 101.237 140.638,101.232 140.800,101.531 140.800 C 101.767 140.800,102.144 140.485,102.368 140.100 C 102.620 139.668,102.780 139.600,102.788 139.924 C 102.795 140.212,102.999 140.324,103.243 140.174 C 104.030 139.687,102.973 139.391,100.019 139.269 L 97.184 139.153 97.279 140.400 M113.037 140.439 C 114.179 141.631,115.596 142.196,115.606 141.463 C 115.611 141.129,115.694 141.124,115.906 141.444 C 116.068 141.689,117.033 142.012,118.051 142.162 C 120.059 142.457,120.400 142.165,120.400 140.143 L 120.400 139.152 116.197 139.251 L 111.993 139.349 113.037 140.439 M101.899 140.977 C 101.515 141.258,101.200 141.625,101.200 141.793 C 101.200 141.961,101.425 141.911,101.700 141.683 C 101.975 141.455,102.335 141.253,102.500 141.234 C 102.665 141.215,102.815 141.095,102.833 140.967 C 102.903 140.480,102.575 140.483,101.899 140.977 M87.600 143.945 C 87.600 145.411,87.656 145.479,88.700 145.291 C 91.396 144.805,91.812 142.400,89.200 142.400 C 87.610 142.400,87.600 142.409,87.600 143.945 M126.800 143.351 C 126.800 144.473,127.391 145.019,128.900 145.291 C 129.944 145.479,130.000 145.411,130.000 143.945 C 130.000 142.409,129.990 142.400,128.400 142.400 C 126.982 142.400,126.800 142.508,126.800 143.351 M81.600 147.000 C 81.600 148.499,82.847 148.993,83.920 147.920 C 84.993 146.847,84.499 145.600,83.000 145.600 C 81.667 145.600,81.600 145.667,81.600 147.000 M133.200 146.520 C 133.200 147.026,133.416 147.656,133.680 147.920 C 134.753 148.993,136.000 148.499,136.000 147.000 C 136.000 145.667,135.933 145.600,134.600 145.600 C 133.406 145.600,133.200 145.735,133.200 146.520 M268.400 148.123 C 267.147 148.550,266.911 148.873,266.156 151.200 C 265.692 152.630,264.852 154.477,264.290 155.305 C 263.728 156.133,263.150 157.514,263.004 158.374 C 262.859 159.234,262.229 160.743,261.605 161.728 C 260.980 162.712,260.095 164.840,259.638 166.456 C 259.181 168.072,258.456 169.869,258.027 170.450 C 257.598 171.030,256.953 172.651,256.594 174.052 C 256.235 175.454,255.524 177.320,255.015 178.200 C 254.506 179.080,253.689 181.150,253.200 182.800 C 252.711 184.450,251.903 186.520,251.405 187.400 C 250.907 188.280,250.289 189.877,250.032 190.949 C 249.774 192.021,249.126 193.762,248.591 194.818 C 245.989 199.953,246.500 201.200,251.210 201.200 C 256.221 201.200,257.397 200.209,258.586 194.981 C 260.014 188.705,260.644 188.400,272.200 188.400 C 283.524 188.400,284.484 188.824,285.626 194.324 C 285.871 195.504,286.505 197.109,287.036 197.890 C 287.566 198.672,288.000 199.492,288.000 199.712 C 288.000 201.145,295.274 201.912,296.987 200.659 C 297.899 199.992,297.038 195.838,295.406 193.036 C 294.882 192.136,294.237 190.500,293.974 189.400 C 293.710 188.300,292.992 186.500,292.377 185.400 C 291.762 184.300,291.043 182.500,290.780 181.400 C 290.516 180.300,289.894 178.680,289.396 177.800 C 288.899 176.920,288.093 174.760,287.606 173.000 C 287.119 171.240,286.223 168.900,285.613 167.800 C 285.004 166.700,284.302 164.955,284.053 163.923 C 283.804 162.890,283.254 161.450,282.831 160.723 C 282.408 159.995,281.760 158.320,281.390 157.000 C 280.505 153.837,277.751 148.144,276.960 147.840 C 275.879 147.425,269.863 147.624,268.400 148.123 M304.700 148.148 C 304.046 148.653,304.000 150.385,304.000 174.400 C 304.000 204.136,303.485 201.167,308.651 201.187 C 312.875 201.204,312.672 201.653,312.889 191.835 C 313.119 181.383,312.681 182.000,319.871 182.000 C 322.611 182.000,325.186 182.178,325.593 182.396 C 326.358 182.806,329.554 189.012,330.412 191.754 C 330.679 192.609,331.307 193.912,331.808 194.650 C 332.308 195.387,332.932 196.884,333.194 197.976 C 333.814 200.560,334.186 200.815,337.721 201.083 C 344.322 201.582,345.550 200.803,343.711 197.280 C 343.057 196.026,342.217 194.076,341.844 192.947 C 341.472 191.818,340.813 190.574,340.381 190.183 C 339.949 189.792,339.216 188.198,338.752 186.640 C 338.288 185.082,337.479 183.297,336.954 182.673 C 335.517 180.965,336.425 179.103,340.402 175.600 C 343.601 172.783,345.781 160.686,343.549 158.142 C 343.191 157.734,342.534 156.590,342.088 155.600 C 341.036 153.267,338.975 151.112,336.763 150.034 C 335.793 149.561,334.460 148.865,333.800 148.487 C 332.173 147.556,305.865 147.249,304.700 148.148 M275.950 148.650 C 277.031 148.866,277.200 149.070,277.200 150.153 C 277.200 152.100,277.889 154.040,278.986 155.186 C 279.740 155.972,280.133 157.062,280.573 159.578 C 281.058 162.358,281.353 163.103,282.318 163.984 C 283.265 164.848,283.530 165.496,283.755 167.487 C 283.940 169.116,284.356 170.373,285.007 171.264 C 286.457 173.249,286.728 173.965,287.015 176.575 C 287.225 178.485,287.501 179.161,288.426 180.024 C 289.349 180.886,289.670 181.668,290.053 183.989 C 290.431 186.275,290.810 187.215,291.865 188.478 C 292.756 189.545,293.201 190.495,293.202 191.338 C 293.206 193.365,293.998 195.719,295.054 196.839 C 295.592 197.410,296.070 198.400,296.116 199.039 L 296.200 200.200 292.894 200.316 C 290.465 200.402,289.542 200.296,289.417 199.916 C 289.324 199.632,289.043 198.363,288.794 197.096 C 288.545 195.829,287.927 194.299,287.421 193.696 C 286.915 193.093,286.248 191.703,285.939 190.606 C 285.079 187.555,285.190 187.578,271.711 187.697 C 258.169 187.816,258.590 187.693,258.047 191.693 C 257.841 193.208,257.406 194.315,256.673 195.186 C 256.082 195.888,255.487 197.165,255.350 198.023 C 254.999 200.217,254.464 200.516,251.226 200.334 C 247.889 200.145,247.580 199.924,248.973 198.721 C 249.853 197.961,250.146 197.176,250.653 194.229 C 251.165 191.250,251.456 190.482,252.406 189.594 C 253.332 188.729,253.599 188.059,253.830 186.013 C 254.050 184.075,254.373 183.203,255.241 182.215 C 256.390 180.906,257.173 178.442,257.190 176.077 C 257.197 175.125,257.537 174.447,258.405 173.654 C 259.319 172.819,259.717 171.980,260.052 170.177 C 260.562 167.434,260.862 166.685,262.161 164.911 C 262.684 164.198,263.324 162.464,263.594 161.030 C 263.963 159.076,264.315 158.286,265.022 157.822 C 265.986 157.191,266.794 155.044,266.798 153.103 C 266.799 152.390,267.220 151.632,268.000 150.937 C 268.660 150.349,269.200 149.643,269.200 149.367 C 269.200 148.461,272.992 148.058,275.950 148.650 M332.605 149.777 C 333.606 150.870,334.280 151.210,335.868 151.420 C 337.676 151.660,337.917 151.814,338.349 153.008 C 338.661 153.872,339.217 154.467,339.952 154.723 C 342.739 155.695,342.360 172.964,339.519 174.424 C 334.615 176.944,333.307 182.673,336.849 186.120 C 337.609 186.860,338.000 187.646,338.000 188.433 C 338.000 190.143,338.931 192.132,340.086 192.889 C 340.890 193.415,341.127 193.977,341.315 195.802 C 341.444 197.045,341.822 198.479,342.156 198.989 C 342.724 199.855,342.706 199.932,341.882 200.153 C 337.514 201.324,334.727 199.550,333.786 195.000 C 333.335 192.817,332.952 191.980,332.048 191.200 C 331.115 190.395,330.844 189.772,330.657 188.000 C 330.476 186.284,330.181 185.573,329.313 184.765 C 328.701 184.196,327.923 183.206,327.585 182.565 L 326.970 181.400 320.374 181.291 C 311.443 181.143,312.231 180.207,312.072 191.142 L 311.945 199.949 309.860 200.210 C 308.714 200.353,307.242 200.409,306.588 200.335 L 305.400 200.200 305.296 174.800 C 305.239 160.830,305.279 149.175,305.384 148.900 C 305.531 148.514,308.520 148.400,318.459 148.400 L 331.343 148.400 332.605 149.777 M312.976 156.167 C 311.879 156.969,311.536 171.433,312.578 173.022 L 313.218 174.000 321.822 174.000 C 331.234 174.000,332.802 173.711,333.663 171.821 C 333.919 171.259,334.288 170.800,334.482 170.800 C 334.677 170.800,335.278 170.358,335.818 169.818 C 337.975 167.662,336.867 159.200,334.428 159.200 C 334.204 159.200,333.734 158.646,333.384 157.968 C 332.300 155.873,330.976 155.600,321.889 155.600 C 315.498 155.600,313.586 155.722,312.976 156.167 M328.656 156.821 C 334.421 159.013,336.779 166.042,333.012 169.809 C 329.677 173.144,329.501 173.197,321.682 173.199 C 314.764 173.200,314.764 173.200,313.724 172.160 L 312.684 171.121 312.904 164.475 C 313.188 155.884,312.656 156.400,321.218 156.400 C 324.700 156.400,328.046 156.590,328.656 156.821 M271.400 159.175 C 269.063 160.225,268.487 161.089,267.766 164.624 C 267.276 167.028,266.880 167.994,266.139 168.600 C 264.289 170.111,263.614 178.014,265.200 179.600 C 266.302 180.702,278.029 180.815,280.120 179.744 C 282.378 178.587,282.639 177.102,280.862 175.519 C 279.927 174.685,279.679 174.067,279.467 172.034 C 279.190 169.384,278.817 168.444,277.341 166.669 C 276.797 166.016,276.396 165.003,276.390 164.269 C 276.354 159.465,274.643 157.718,271.400 159.175 M65.600 162.773 C 65.600 164.424,67.655 164.320,67.832 162.660 C 67.932 161.729,67.803 161.600,66.773 161.600 C 65.742 161.600,65.600 161.742,65.600 162.773 M149.768 162.660 C 149.945 164.320,152.000 164.424,152.000 162.773 C 152.000 161.742,151.858 161.600,150.827 161.600 C 149.797 161.600,149.668 161.729,149.768 162.660 M275.115 164.800 C 275.618 166.450,276.409 168.700,276.873 169.800 C 277.338 170.900,278.168 173.136,278.720 174.768 L 279.722 177.736 278.639 178.668 C 277.249 179.863,268.087 180.097,266.489 178.977 C 265.102 178.006,265.240 174.524,266.791 171.400 C 267.446 170.080,268.164 168.280,268.386 167.400 C 268.949 165.170,270.163 163.334,271.696 162.392 C 273.679 161.174,274.099 161.470,275.115 164.800 M63.300 170.309 C 61.898 170.537,61.946 174.000,63.351 174.000 C 63.874 174.000,64.479 173.775,64.695 173.500 C 65.140 172.933,65.753 170.114,65.341 170.526 C 65.194 170.673,64.877 170.651,64.637 170.478 C 64.397 170.305,63.795 170.229,63.300 170.309 M152.963 170.460 C 152.843 170.654,152.580 170.711,152.378 170.587 C 152.167 170.456,152.118 170.918,152.262 171.680 C 152.832 174.683,155.200 175.140,155.200 172.247 C 155.200 170.529,153.674 169.310,152.963 170.460 M62.400 186.153 C 62.400 187.871,63.926 189.090,64.637 187.940 C 64.757 187.746,65.020 187.689,65.222 187.813 C 65.433 187.944,65.482 187.482,65.338 186.720 C 64.768 183.717,62.400 183.260,62.400 186.153 M152.905 184.900 C 152.370 185.581,151.915 188.100,152.378 187.813 C 152.580 187.689,152.843 187.746,152.963 187.940 C 153.674 189.090,155.200 187.871,155.200 186.153 C 155.200 184.318,153.914 183.616,152.905 184.900 M65.600 195.627 C 65.600 196.658,65.742 196.800,66.773 196.800 C 67.803 196.800,67.932 196.671,67.832 195.740 C 67.655 194.080,65.600 193.976,65.600 195.627 M149.973 194.600 C 149.957 194.600,149.880 195.095,149.800 195.700 C 149.670 196.683,149.779 196.800,150.827 196.800 C 151.854 196.800,152.000 196.656,152.000 195.642 C 152.000 194.659,151.850 194.493,151.000 194.542 C 150.450 194.574,149.988 194.600,149.973 194.600 M81.600 211.400 C 81.600 212.733,81.667 212.800,83.000 212.800 C 84.499 212.800,84.993 211.553,83.920 210.480 C 82.847 209.407,81.600 209.901,81.600 211.400 M133.680 210.480 C 132.607 211.553,133.101 212.800,134.600 212.800 C 135.933 212.800,136.000 212.733,136.000 211.400 C 136.000 209.901,134.753 209.407,133.680 210.480 M87.600 214.455 C 87.600 215.991,87.610 216.000,89.200 216.000 C 91.812 216.000,91.396 213.595,88.700 213.109 C 87.656 212.921,87.600 212.989,87.600 214.455 M128.800 213.093 C 126.196 213.571,125.862 216.000,128.400 216.000 L 130.000 216.000 130.000 214.400 C 130.000 213.520,129.955 212.825,129.900 212.854 C 129.845 212.884,129.350 212.992,128.800 213.093 M97.734 216.500 C 97.534 216.775,97.319 217.492,97.257 218.094 L 97.144 219.189 100.372 219.128 C 103.715 219.065,103.872 219.002,103.163 218.000 C 102.842 217.546,102.690 217.522,102.535 217.902 C 102.423 218.179,102.148 218.291,101.923 218.152 C 101.665 217.993,101.714 217.771,102.057 217.550 C 102.904 217.004,101.672 216.348,100.100 216.507 C 99.385 216.580,98.800 216.496,98.800 216.320 C 98.800 215.829,98.141 215.940,97.734 216.500 M117.307 216.376 C 115.378 216.690,114.784 217.096,115.554 217.572 C 115.891 217.780,115.936 217.992,115.677 218.152 C 115.452 218.291,115.177 218.179,115.065 217.902 C 114.871 217.424,114.023 218.170,114.006 218.834 C 113.994 219.288,120.159 219.190,120.442 218.732 C 120.817 218.125,120.036 215.988,119.461 216.050 C 119.207 216.078,118.238 216.224,117.307 216.376 M174.667 260.267 C 173.992 260.941,174.395 263.600,175.171 263.600 C 176.771 263.600,177.789 261.549,176.720 260.480 C 176.197 259.957,175.091 259.842,174.667 260.267 M223.295 260.465 C 222.204 261.556,223.218 263.600,224.852 263.600 C 225.539 263.600,225.629 263.371,225.523 261.900 C 225.392 260.088,224.346 259.414,223.295 260.465 M171.200 267.754 C 171.200 268.370,172.979 269.687,173.333 269.333 C 173.687 268.979,172.370 267.200,171.754 267.200 C 171.449 267.200,171.200 267.449,171.200 267.754 M227.067 268.154 C 226.723 268.679,226.543 269.210,226.667 269.333 C 227.021 269.687,228.800 268.370,228.800 267.754 C 228.800 266.870,227.749 267.113,227.067 268.154 M164.878 281.193 C 164.961 282.280,166.000 283.005,166.000 281.976 C 166.000 281.743,166.208 281.681,166.462 281.838 C 166.748 282.015,166.815 281.948,166.638 281.662 C 166.481 281.408,166.543 281.200,166.776 281.200 C 167.805 281.200,167.080 280.161,165.993 280.078 C 164.880 279.993,164.793 280.080,164.878 281.193 M232.800 280.685 C 232.800 280.968,232.991 281.200,233.224 281.200 C 233.457 281.200,233.519 281.408,233.362 281.662 C 233.185 281.948,233.252 282.015,233.538 281.838 C 233.792 281.681,234.000 281.743,234.000 281.976 C 234.000 283.005,235.039 282.280,235.122 281.193 C 235.207 280.080,235.120 279.993,234.007 280.078 C 233.337 280.129,232.800 280.399,232.800 280.685 M161.678 284.393 C 161.761 285.480,162.800 286.205,162.800 285.176 C 162.800 284.943,163.008 284.881,163.262 285.038 C 163.548 285.215,163.615 285.148,163.438 284.862 C 163.281 284.608,163.343 284.400,163.576 284.400 C 164.605 284.400,163.880 283.361,162.793 283.278 C 161.680 283.193,161.593 283.280,161.678 284.393 M236.000 283.885 C 236.000 284.168,236.191 284.400,236.424 284.400 C 236.657 284.400,236.719 284.608,236.562 284.862 C 236.385 285.148,236.452 285.215,236.738 285.038 C 236.992 284.881,237.200 284.943,237.200 285.176 C 237.200 286.205,238.239 285.480,238.322 284.393 C 238.407 283.280,238.320 283.193,237.207 283.278 C 236.537 283.329,236.000 283.599,236.000 283.885 M148.476 291.100 C 148.667 293.413,151.189 293.106,151.756 290.700 C 152.010 289.622,151.978 289.600,150.183 289.600 L 148.352 289.600 148.476 291.100 M248.244 290.700 C 248.811 293.106,251.333 293.413,251.524 291.100 L 251.648 289.600 249.817 289.600 C 248.022 289.600,247.990 289.622,248.244 290.700 M131.569 293.500 C 131.553 293.885,131.478 294.516,131.405 294.902 C 131.331 295.288,131.442 295.497,131.653 295.367 C 131.863 295.237,132.272 295.328,132.561 295.568 C 133.269 296.155,137.958 295.511,138.433 294.761 C 139.478 293.110,138.967 292.800,135.200 292.800 C 132.050 292.800,131.596 292.887,131.569 293.500 M261.206 293.500 C 261.221 295.186,265.992 296.769,267.439 295.568 C 267.728 295.328,268.137 295.237,268.347 295.367 C 268.558 295.497,268.669 295.288,268.595 294.902 C 268.522 294.516,268.447 293.885,268.431 293.500 C 268.404 292.887,267.950 292.800,264.800 292.800 C 261.636 292.800,261.201 292.885,261.206 293.500 " stroke="none" fill="#beb6b6" fill-rule="evenodd"></path><path id="path4" d="M101.014 139.600 C 100.953 139.710,100.954 140.115,101.016 140.500 C 101.078 140.885,100.955 141.200,100.741 141.200 C 100.527 141.200,100.455 141.365,100.579 141.566 C 100.703 141.767,100.579 142.023,100.302 142.134 C 99.999 142.256,100.078 142.349,100.500 142.368 C 100.885 142.386,101.200 142.130,101.200 141.800 C 101.200 141.470,101.391 141.200,101.624 141.200 C 101.857 141.200,101.951 141.355,101.834 141.545 C 101.717 141.735,102.021 141.870,102.510 141.845 C 103.135 141.813,103.413 141.535,103.445 140.910 C 103.470 140.421,103.335 140.117,103.145 140.234 C 102.955 140.351,102.800 140.270,102.800 140.053 C 102.800 139.836,103.115 139.580,103.500 139.485 C 103.885 139.389,103.508 139.331,102.662 139.355 C 101.816 139.380,101.075 139.490,101.014 139.600 M111.200 139.741 C 111.200 140.437,112.341 141.426,113.581 141.805 C 114.508 142.089,114.524 142.067,113.878 141.421 C 113.501 141.044,113.287 140.582,113.403 140.395 C 113.646 140.001,112.910 139.471,111.900 139.314 C 111.515 139.254,111.200 139.446,111.200 139.741 M102.741 140.526 C 103.038 140.925,103.185 141.348,103.067 141.467 C 102.772 141.761,101.423 140.717,101.300 140.100 C 101.157 139.387,102.100 139.666,102.741 140.526 M113.031 140.533 C 113.156 141.380,113.078 141.370,112.227 140.430 C 111.565 139.699,111.565 139.666,112.232 139.764 C 112.618 139.820,112.978 140.167,113.031 140.533 M115.606 141.700 C 115.602 142.170,115.895 142.390,116.500 142.368 C 117.101 142.347,117.201 142.261,116.800 142.108 C 116.470 141.983,116.068 141.682,115.906 141.440 C 115.725 141.169,115.610 141.268,115.606 141.700 M269.700 148.665 C 269.425 148.776,269.200 149.092,269.200 149.367 C 269.200 149.643,268.660 150.349,268.000 150.937 C 267.220 151.632,266.799 152.390,266.798 153.103 C 266.794 155.044,265.986 157.191,265.022 157.822 C 264.315 158.286,263.963 159.076,263.594 161.030 C 263.324 162.464,262.684 164.198,262.161 164.911 C 260.862 166.685,260.562 167.434,260.052 170.177 C 259.717 171.980,259.319 172.819,258.405 173.654 C 257.537 174.447,257.197 175.125,257.190 176.077 C 257.173 178.442,256.390 180.906,255.241 182.215 C 254.373 183.203,254.050 184.075,253.830 186.013 C 253.599 188.059,253.332 188.729,252.406 189.594 C 251.456 190.482,251.165 191.250,250.653 194.229 C 250.146 197.176,249.853 197.961,248.973 198.721 C 247.580 199.924,247.889 200.145,251.226 200.334 C 254.464 200.516,254.999 200.217,255.350 198.023 C 255.487 197.165,256.082 195.888,256.673 195.186 C 257.406 194.315,257.841 193.208,258.047 191.693 C 258.590 187.693,258.169 187.816,271.711 187.697 C 285.190 187.578,285.079 187.555,285.939 190.606 C 286.248 191.703,286.915 193.093,287.421 193.696 C 287.927 194.299,288.545 195.829,288.794 197.096 C 289.043 198.363,289.324 199.632,289.417 199.916 C 289.542 200.296,290.465 200.402,292.894 200.316 L 296.200 200.200 296.116 199.039 C 296.070 198.400,295.592 197.410,295.054 196.839 C 293.998 195.719,293.206 193.365,293.202 191.338 C 293.201 190.495,292.756 189.545,291.865 188.478 C 290.810 187.215,290.431 186.275,290.053 183.989 C 289.670 181.668,289.349 180.886,288.426 180.024 C 287.501 179.161,287.225 178.485,287.015 176.575 C 286.728 173.965,286.457 173.249,285.007 171.264 C 284.356 170.373,283.940 169.116,283.755 167.487 C 283.530 165.496,283.265 164.848,282.318 163.984 C 281.353 163.103,281.058 162.358,280.573 159.578 C 280.133 157.062,279.740 155.972,278.986 155.186 C 277.889 154.040,277.200 152.100,277.200 150.153 C 277.200 149.070,277.031 148.866,275.950 148.650 C 274.500 148.360,270.432 148.370,269.700 148.665 M305.384 148.900 C 305.279 149.175,305.239 160.830,305.296 174.800 L 305.400 200.200 306.588 200.335 C 307.242 200.409,308.714 200.353,309.860 200.210 L 311.945 199.949 312.072 191.142 C 312.231 180.207,311.443 181.143,320.374 181.291 L 326.970 181.400 327.585 182.565 C 327.923 183.206,328.701 184.196,329.313 184.765 C 330.181 185.573,330.476 186.284,330.657 188.000 C 330.844 189.772,331.115 190.395,332.048 191.200 C 332.952 191.980,333.335 192.817,333.786 195.000 C 334.727 199.550,337.514 201.324,341.882 200.153 C 342.706 199.932,342.724 199.855,342.156 198.989 C 341.822 198.479,341.444 197.045,341.315 195.802 C 341.127 193.977,340.890 193.415,340.086 192.889 C 338.931 192.132,338.000 190.143,338.000 188.433 C 338.000 187.646,337.609 186.860,336.849 186.120 C 333.307 182.673,334.615 176.944,339.519 174.424 C 342.360 172.964,342.739 155.695,339.952 154.723 C 339.217 154.467,338.661 153.872,338.349 153.008 C 337.917 151.814,337.676 151.660,335.868 151.420 C 334.280 151.210,333.606 150.870,332.605 149.777 L 331.343 148.400 318.459 148.400 C 308.520 148.400,305.531 148.514,305.384 148.900 M331.386 156.168 C 332.151 156.488,333.026 157.276,333.384 157.968 C 333.734 158.646,334.204 159.200,334.428 159.200 C 334.653 159.200,335.278 159.642,335.818 160.182 C 337.942 162.306,336.874 170.800,334.482 170.800 C 334.288 170.800,333.919 171.259,333.663 171.821 C 332.802 173.711,331.234 174.000,321.822 174.000 L 313.218 174.000 312.578 173.022 C 311.536 171.433,311.879 156.969,312.976 156.167 C 314.098 155.348,329.425 155.349,331.386 156.168 M274.775 159.100 C 275.672 159.826,276.374 162.073,276.390 164.269 C 276.396 165.003,276.797 166.016,277.341 166.669 C 278.817 168.444,279.190 169.384,279.467 172.034 C 279.679 174.067,279.927 174.685,280.862 175.519 C 282.639 177.102,282.378 178.587,280.120 179.744 C 278.029 180.815,266.302 180.702,265.200 179.600 C 263.614 178.014,264.289 170.111,266.139 168.600 C 266.880 167.994,267.276 167.028,267.766 164.624 C 268.487 161.089,269.063 160.225,271.400 159.175 C 273.442 158.258,273.728 158.252,274.775 159.100 M102.400 216.951 C 102.400 217.308,102.209 217.600,101.976 217.600 C 101.743 217.600,101.676 217.799,101.826 218.043 C 101.994 218.313,102.197 218.336,102.350 218.103 C 102.488 217.892,102.845 217.641,103.144 217.545 C 103.578 217.406,103.558 217.263,103.044 216.836 C 102.497 216.383,102.400 216.400,102.400 216.951 M114.436 216.956 C 113.983 217.503,114.000 217.600,114.551 217.600 C 114.908 217.600,115.200 217.791,115.200 218.024 C 115.200 218.257,115.399 218.324,115.643 218.174 C 115.913 218.006,115.936 217.803,115.703 217.650 C 115.492 217.513,115.241 217.155,115.145 216.856 C 115.006 216.422,114.863 216.442,114.436 216.956 M165.490 280.643 C 165.250 280.884,166.101 282.793,166.451 282.797 C 166.765 282.801,167.771 281.613,167.557 281.490 C 166.169 280.692,165.653 280.480,165.490 280.643 M233.400 280.947 C 232.960 281.196,232.529 281.441,232.443 281.490 C 232.229 281.613,233.235 282.801,233.549 282.797 C 233.927 282.792,234.764 280.824,234.462 280.648 C 234.318 280.563,233.840 280.698,233.400 280.947 M162.290 283.843 C 162.050 284.084,162.901 285.993,163.251 285.997 C 163.565 286.001,164.571 284.813,164.357 284.690 C 162.969 283.892,162.453 283.680,162.290 283.843 M236.600 284.147 C 236.160 284.396,235.729 284.641,235.643 284.690 C 235.429 284.813,236.435 286.001,236.749 285.997 C 237.127 285.992,237.964 284.024,237.662 283.848 C 237.518 283.763,237.040 283.898,236.600 284.147 " stroke="none" fill="#eae0e0" fill-rule="evenodd"></path></g></svg>