<svg id="svg" version="1.1" width="400" height="400" xmlns="http://www.w3.org/2000/svg" xmlns:xlink="http://www.w3.org/1999/xlink" style="display: block;"><g id="svgg"><path id="path0" d="M29.462 109.531 C 28.345 110.765,28.453 289.562,29.571 290.574 C 30.298 291.231,33.382 291.265,83.074 291.153 L 135.806 291.035 137.629 291.917 C 139.352 292.751,145.349 293.281,144.154 292.494 C 143.506 292.067,143.106 290.527,143.401 289.596 C 144.064 287.507,148.492 286.924,150.962 288.600 C 151.772 289.150,152.833 289.586,153.318 289.568 C 153.803 289.551,153.975 289.446,153.700 289.335 C 153.410 289.218,153.200 288.418,153.200 287.429 C 153.200 284.486,155.282 283.511,157.527 285.400 C 158.381 286.118,159.150 286.387,160.258 286.354 C 161.106 286.328,161.485 286.225,161.100 286.124 C 160.715 286.024,160.388 285.820,160.372 285.671 C 160.357 285.522,160.280 284.909,160.201 284.310 C 160.085 283.437,160.378 282.952,161.670 281.880 C 163.055 280.729,163.313 280.262,163.498 278.570 C 163.650 277.183,164.052 276.211,164.857 275.286 C 165.486 274.563,166.000 273.740,166.000 273.456 C 166.000 271.755,169.317 270.574,170.571 271.829 C 171.702 272.959,171.338 270.879,170.160 269.480 C 168.607 267.634,169.761 263.600,171.843 263.600 C 172.618 263.600,172.898 262.169,172.610 259.672 C 172.230 256.376,175.117 254.077,177.120 256.080 C 178.112 257.072,177.610 254.452,176.600 253.362 C 174.278 250.856,177.762 247.019,180.171 249.429 C 181.279 250.536,180.949 248.493,179.800 247.127 C 177.570 244.477,181.083 240.843,183.520 243.280 C 183.893 243.653,184.000 243.527,184.000 242.709 C 184.000 242.045,184.257 241.591,184.700 241.476 C 185.266 241.328,185.240 241.284,184.564 241.246 C 183.755 241.201,182.800 239.775,182.800 238.610 C 182.800 238.307,183.254 237.701,183.808 237.265 C 184.363 236.829,185.012 235.910,185.252 235.224 C 185.494 234.529,186.197 233.712,186.837 233.381 C 187.469 233.054,188.253 232.271,188.578 231.642 C 189.569 229.725,190.957 229.511,192.727 231.000 C 193.381 231.550,194.340 231.995,194.858 231.988 C 195.690 231.977,195.719 231.928,195.100 231.568 C 193.975 230.913,194.180 228.631,195.454 227.629 C 198.368 225.337,205.600 226.891,205.600 229.809 C 205.600 230.674,205.348 231.307,204.900 231.568 C 204.281 231.928,204.310 231.977,205.142 231.988 C 205.660 231.995,206.619 231.550,207.273 231.000 C 209.043 229.511,210.431 229.725,211.422 231.642 C 211.747 232.271,212.531 233.054,213.163 233.381 C 213.803 233.712,214.506 234.529,214.748 235.224 C 214.988 235.910,215.637 236.829,216.192 237.265 C 216.746 237.701,217.200 238.307,217.200 238.610 C 217.200 239.775,216.245 241.201,215.436 241.246 C 214.760 241.284,214.734 241.328,215.300 241.476 C 215.743 241.591,216.000 242.045,216.000 242.709 C 216.000 243.527,216.107 243.653,216.480 243.280 C 218.924 240.836,222.437 244.469,220.200 247.127 C 219.051 248.493,218.721 250.536,219.829 249.429 C 222.241 247.016,225.725 250.853,223.400 253.362 C 222.390 254.452,221.888 257.072,222.880 256.080 C 224.883 254.077,227.770 256.376,227.390 259.672 C 227.102 262.169,227.382 263.600,228.157 263.600 C 230.239 263.600,231.393 267.634,229.840 269.480 C 228.662 270.879,228.298 272.959,229.429 271.829 C 230.709 270.548,234.000 271.760,234.000 273.512 C 234.000 273.765,234.514 274.563,235.143 275.286 C 235.948 276.211,236.350 277.183,236.502 278.570 C 236.687 280.262,236.945 280.729,238.330 281.880 C 239.622 282.952,239.915 283.437,239.799 284.310 C 239.720 284.909,239.643 285.522,239.628 285.671 C 239.612 285.820,239.285 286.024,238.900 286.124 C 238.515 286.225,238.894 286.328,239.742 286.354 C 240.850 286.387,241.619 286.118,242.473 285.400 C 244.726 283.504,246.800 284.509,246.800 287.498 C 246.800 288.432,246.586 289.220,246.300 289.335 C 246.025 289.446,246.197 289.551,246.682 289.568 C 247.167 289.586,248.228 289.150,249.038 288.600 C 251.508 286.924,255.936 287.507,256.599 289.596 C 256.894 290.527,256.494 292.067,255.846 292.494 C 254.651 293.281,260.648 292.751,262.371 291.917 L 264.194 291.035 316.926 291.153 C 366.618 291.265,369.702 291.231,370.429 290.574 C 371.608 289.507,371.647 110.528,370.469 109.462 C 369.271 108.378,30.443 108.447,29.462 109.531 M102.145 138.335 C 103.945 139.131,110.055 139.608,111.600 139.073 C 111.930 138.958,112.650 138.771,113.200 138.656 C 113.750 138.540,115.370 138.172,116.800 137.837 C 122.449 136.514,126.000 137.416,126.000 140.174 C 126.000 141.072,125.754 141.704,125.300 141.968 C 124.666 142.337,124.681 142.377,125.451 142.388 C 125.919 142.395,126.568 142.000,126.893 141.511 C 127.917 139.969,132.629 140.333,134.098 142.068 C 134.702 142.781,135.962 143.733,136.898 144.182 C 139.014 145.199,139.625 147.696,137.924 148.379 C 137.029 148.738,137.036 148.750,138.137 148.775 C 138.930 148.792,139.335 148.571,139.473 148.043 C 139.922 146.327,143.544 146.824,144.183 148.689 C 144.316 149.080,145.000 149.760,145.702 150.201 C 146.403 150.641,147.168 151.385,147.402 151.854 C 147.636 152.323,148.406 153.193,149.113 153.789 C 150.608 155.046,150.783 156.417,149.600 157.600 C 149.151 158.049,148.820 158.882,148.846 159.500 C 148.875 160.177,148.963 160.331,149.076 159.900 C 149.356 158.829,152.134 158.948,153.184 160.075 C 154.418 161.399,154.157 164.169,152.757 164.614 C 152.313 164.755,152.005 165.215,152.012 165.727 C 152.023 166.512,152.065 166.530,152.432 165.900 C 153.016 164.897,155.278 164.981,156.238 166.042 C 157.393 167.318,157.311 171.512,156.100 173.150 C 155.284 174.255,155.200 174.816,155.200 179.200 C 155.200 183.584,155.284 184.145,156.100 185.250 C 157.311 186.888,157.393 191.082,156.238 192.358 C 155.278 193.419,153.016 193.503,152.432 192.500 C 152.065 191.870,152.023 191.888,152.012 192.673 C 152.005 193.185,152.313 193.645,152.757 193.786 C 154.157 194.231,154.418 197.001,153.184 198.325 C 152.134 199.452,149.356 199.571,149.076 198.500 C 148.963 198.069,148.875 198.223,148.846 198.900 C 148.820 199.518,149.151 200.351,149.600 200.800 C 150.783 201.983,150.608 203.354,149.113 204.611 C 148.406 205.207,147.636 206.077,147.402 206.546 C 147.168 207.015,146.403 207.759,145.702 208.199 C 145.000 208.640,144.316 209.320,144.183 209.711 C 143.544 211.576,139.922 212.073,139.473 210.357 C 139.335 209.829,138.930 209.608,138.137 209.625 C 137.036 209.650,137.029 209.662,137.924 210.021 C 139.625 210.704,139.014 213.201,136.898 214.218 C 135.962 214.667,134.702 215.621,134.098 216.337 C 132.676 218.024,127.866 218.355,126.857 216.836 C 126.552 216.376,125.919 216.005,125.451 216.012 C 124.681 216.023,124.666 216.063,125.300 216.432 C 126.304 217.017,126.219 219.278,125.157 220.238 C 123.385 221.839,114.055 220.697,113.968 218.868 C 113.949 218.452,113.861 218.389,113.735 218.700 C 113.590 219.060,112.212 219.200,108.800 219.200 C 105.388 219.200,104.010 219.060,103.865 218.700 C 103.738 218.386,103.651 218.447,103.632 218.862 C 103.563 220.306,96.008 221.797,93.670 220.829 C 91.805 220.056,91.107 216.698,92.724 216.271 C 93.166 216.155,93.062 216.077,92.426 216.046 C 91.890 216.021,91.048 216.380,90.554 216.843 C 88.994 218.309,84.925 218.014,83.502 216.333 C 82.898 215.619,81.638 214.667,80.702 214.218 C 78.586 213.201,77.975 210.704,79.676 210.021 C 80.571 209.662,80.564 209.650,79.463 209.625 C 78.670 209.608,78.265 209.829,78.127 210.357 C 77.678 212.073,74.056 211.576,73.417 209.711 C 73.284 209.320,72.600 208.640,71.898 208.199 C 71.197 207.759,70.432 207.015,70.198 206.546 C 69.964 206.077,69.194 205.207,68.487 204.611 C 66.992 203.354,66.817 201.983,68.000 200.800 C 68.449 200.351,68.780 199.518,68.754 198.900 C 68.725 198.223,68.637 198.069,68.524 198.500 C 68.244 199.571,65.466 199.452,64.416 198.325 C 63.182 197.001,63.443 194.231,64.843 193.786 C 65.287 193.645,65.595 193.185,65.588 192.673 C 65.577 191.888,65.535 191.870,65.168 192.500 C 64.584 193.503,62.322 193.419,61.362 192.358 C 60.207 191.082,60.289 186.888,61.500 185.250 C 62.316 184.145,62.400 183.584,62.400 179.200 C 62.400 174.816,62.316 174.255,61.500 173.150 C 60.289 171.512,60.207 167.318,61.362 166.042 C 62.322 164.981,64.584 164.897,65.168 165.900 C 65.535 166.530,65.577 166.512,65.588 165.727 C 65.595 165.215,65.287 164.755,64.843 164.614 C 63.416 164.161,63.193 161.485,64.470 160.126 C 65.569 158.956,68.239 158.807,68.524 159.900 C 68.625 160.285,68.728 160.034,68.754 159.343 C 68.781 158.597,68.571 157.998,68.238 157.870 C 66.901 157.357,67.019 155.117,68.451 153.840 C 69.193 153.179,69.985 152.270,70.211 151.820 C 70.438 151.370,71.197 150.641,71.898 150.201 C 72.600 149.760,73.284 149.080,73.417 148.689 C 74.056 146.824,77.678 146.327,78.127 148.043 C 78.265 148.571,78.670 148.792,79.463 148.775 C 80.564 148.750,80.571 148.738,79.676 148.379 C 77.975 147.696,78.586 145.199,80.702 144.182 C 81.638 143.733,82.898 142.783,83.502 142.071 C 84.951 140.364,88.955 140.054,90.524 141.528 C 91.034 142.008,91.890 142.395,92.426 142.388 C 93.280 142.377,93.314 142.326,92.700 141.968 C 91.554 141.301,91.782 139.031,93.100 137.984 C 94.504 136.869,99.248 137.053,102.145 138.335 M253.087 146.918 C 253.730 147.566,253.802 148.572,253.819 157.118 C 253.849 172.072,253.795 171.473,255.181 172.190 C 256.395 172.818,257.193 174.666,257.198 176.861 C 257.199 177.680,257.475 178.017,258.402 178.341 C 259.796 178.827,260.400 180.103,260.400 182.563 C 260.400 184.193,260.471 184.295,261.900 184.723 C 264.115 185.386,264.115 185.386,264.606 183.452 C 264.856 182.469,265.604 181.045,266.270 180.287 C 266.983 179.475,267.587 178.245,267.739 177.294 C 267.894 176.322,268.535 175.035,269.350 174.060 C 270.277 172.950,270.794 171.836,270.991 170.520 C 271.328 168.274,271.773 167.327,273.061 166.119 C 273.992 165.245,274.000 165.165,274.000 156.248 C 274.000 145.197,273.526 146.000,280.045 146.000 C 285.407 146.000,287.768 146.735,288.222 148.546 C 288.944 151.424,288.206 167.127,287.290 168.365 C 286.790 169.041,286.216 170.463,286.014 171.526 C 285.523 174.115,284.867 175.464,283.738 176.204 C 283.175 176.572,282.800 177.212,282.800 177.801 C 282.800 179.332,281.627 181.890,280.623 182.548 C 280.066 182.913,279.622 183.708,279.477 184.601 C 279.339 185.453,278.677 186.682,277.882 187.562 C 277.007 188.531,276.430 189.654,276.259 190.722 C 276.100 191.718,275.509 192.931,274.779 193.762 C 274.111 194.523,273.343 195.923,273.072 196.873 C 272.691 198.209,272.287 198.729,271.290 199.172 C 270.410 199.562,270.000 200.020,270.000 200.610 C 270.000 202.582,268.977 202.870,262.449 202.729 C 255.319 202.576,255.144 202.487,254.882 198.865 C 254.724 196.678,254.621 196.466,253.466 195.953 C 252.516 195.531,252.104 194.990,251.728 193.673 C 251.457 192.723,250.689 191.323,250.021 190.562 C 249.303 189.745,248.700 188.517,248.547 187.561 C 248.393 186.593,247.754 185.302,246.958 184.350 C 246.227 183.475,245.510 182.127,245.365 181.356 C 245.211 180.534,244.717 179.702,244.172 179.345 C 243.207 178.713,242.222 176.457,241.818 173.955 C 241.689 173.160,241.203 172.170,240.737 171.755 C 238.976 170.186,238.800 168.994,238.800 158.639 C 238.800 148.409,238.991 147.028,240.494 146.399 C 242.208 145.682,252.271 146.097,253.087 146.918 M325.794 146.398 C 326.379 146.620,327.013 147.290,327.231 147.918 C 327.497 148.681,328.036 149.163,328.911 149.420 C 329.874 149.704,330.296 150.126,330.580 151.089 C 330.837 151.964,331.319 152.503,332.082 152.769 C 333.399 153.228,334.000 154.557,334.000 157.012 C 334.000 158.444,334.233 159.011,335.249 160.050 C 336.847 161.684,336.823 166.290,335.206 168.477 C 334.583 169.320,334.200 170.578,333.994 172.458 C 333.676 175.349,333.204 176.266,331.749 176.819 C 331.263 177.004,330.624 177.659,330.329 178.274 C 330.034 178.889,329.299 179.629,328.696 179.918 C 327.352 180.562,327.295 181.382,328.538 182.196 C 329.694 182.954,330.250 184.128,330.620 186.593 C 330.803 187.817,331.307 188.950,332.038 189.782 C 333.518 191.467,334.000 192.809,334.000 195.239 C 334.000 196.769,334.161 197.282,334.700 197.473 C 336.838 198.232,337.481 200.459,335.959 201.838 C 335.229 202.500,334.346 202.617,329.259 202.732 C 320.547 202.929,319.609 202.470,318.834 197.634 C 318.546 195.837,318.128 194.758,317.437 194.034 C 316.129 192.662,315.600 191.160,315.600 188.813 C 315.600 187.017,315.513 186.848,314.385 186.455 C 313.578 186.173,313.025 185.617,312.740 184.801 L 312.311 183.570 308.856 183.685 L 305.400 183.800 305.200 192.487 C 305.024 200.128,304.914 201.259,304.286 201.887 C 303.366 202.806,291.613 202.973,290.720 202.080 C 290.171 201.532,289.689 150.931,290.205 148.079 C 290.358 147.232,290.759 146.631,291.322 146.404 C 292.560 145.906,324.484 145.900,325.794 146.398 M305.467 158.267 C 305.320 158.413,305.200 161.473,305.200 165.067 L 305.200 171.600 310.300 171.604 L 315.400 171.607 316.422 170.364 C 317.174 169.450,318.021 168.990,319.622 168.626 L 321.800 168.131 321.798 165.705 C 321.795 162.899,321.149 161.902,318.852 161.163 C 317.049 160.583,316.414 160.088,315.968 158.916 C 315.621 158.003,306.307 157.427,305.467 158.267 M186.202 240.798 C 185.540 241.530,185.535 241.600,186.151 241.600 C 186.522 241.600,186.932 241.322,187.062 240.983 C 187.434 240.012,186.998 239.918,186.202 240.798 M212.800 240.551 C 212.800 240.922,213.078 241.332,213.417 241.462 C 214.388 241.834,214.482 241.398,213.602 240.602 C 212.870 239.940,212.800 239.935,212.800 240.551 " stroke="none" fill="#000000" fill-rule="evenodd"></path><path id="path1" d="M24.629 104.629 C 24.283 104.974,24.005 105.469,24.012 105.729 C 24.019 105.988,24.205 105.891,24.425 105.513 C 24.645 105.135,25.135 104.645,25.513 104.425 C 25.891 104.205,25.988 104.019,25.729 104.012 C 25.469 104.005,24.974 104.283,24.629 104.629 M27.741 104.700 C 27.849 105.085,28.043 105.775,28.174 106.233 C 28.562 107.593,27.259 108.476,25.578 107.994 C 24.823 107.777,24.159 107.600,24.103 107.600 C 24.046 107.600,24.000 149.180,24.000 200.000 C 24.000 250.820,24.046 292.400,24.103 292.400 C 24.159 292.400,24.823 292.223,25.578 292.006 C 27.128 291.562,28.558 292.401,28.237 293.567 C 28.142 293.915,27.947 294.605,27.805 295.100 L 27.546 296.000 75.473 295.954 C 101.833 295.928,123.075 295.823,122.678 295.720 C 122.116 295.574,121.983 295.207,122.078 294.066 L 122.200 292.600 130.500 292.600 C 135.066 292.600,138.801 292.546,138.800 292.480 C 138.796 291.106,137.065 291.065,83.071 291.169 C 33.395 291.266,30.297 291.231,29.571 290.574 C 28.392 289.507,28.353 110.528,29.531 109.462 C 30.729 108.378,369.557 108.447,370.538 109.531 C 371.655 110.765,371.547 289.562,370.429 290.574 C 369.703 291.231,366.605 291.266,316.929 291.169 C 262.935 291.065,261.204 291.106,261.200 292.480 C 261.199 292.546,264.934 292.600,269.500 292.600 L 277.800 292.600 277.922 294.066 C 278.017 295.207,277.884 295.574,277.322 295.720 C 276.925 295.823,298.167 295.928,324.527 295.954 C 377.400 296.005,372.528 296.230,371.826 293.767 C 371.438 292.407,372.741 291.524,374.422 292.006 C 375.177 292.223,375.841 292.400,375.897 292.400 C 375.954 292.400,376.000 250.820,376.000 200.000 C 376.000 149.180,375.954 107.600,375.897 107.600 C 375.841 107.600,375.177 107.777,374.422 107.994 C 372.812 108.455,371.442 107.589,371.794 106.333 C 371.907 105.930,372.102 105.240,372.227 104.800 C 372.454 104.001,372.263 104.000,200.000 104.000 C 35.950 104.000,27.556 104.034,27.741 104.700 M374.487 104.425 C 374.865 104.645,375.355 105.135,375.575 105.513 C 375.795 105.891,375.981 105.988,375.988 105.729 C 376.004 105.119,374.881 103.996,374.271 104.012 C 374.012 104.019,374.109 104.205,374.487 104.425 M93.100 137.984 C 90.576 139.990,91.906 142.440,95.474 142.354 C 96.533 142.328,97.040 142.221,96.600 142.115 C 95.508 141.852,95.203 141.507,94.981 140.284 C 94.741 138.963,96.197 138.609,100.732 138.887 L 103.800 139.074 102.038 138.295 C 99.228 137.052,94.481 136.887,93.100 137.984 M116.600 137.863 C 115.280 138.183,113.570 138.594,112.800 138.777 C 111.946 138.980,113.289 139.027,116.241 138.897 C 122.665 138.614,123.200 138.761,123.200 140.808 C 123.200 142.508,123.703 142.801,125.226 141.986 C 125.764 141.698,126.000 141.147,126.000 140.180 C 126.000 137.415,122.258 136.493,116.600 137.863 M86.200 140.690 C 84.995 140.790,84.329 141.137,83.502 142.094 C 82.898 142.793,81.638 143.733,80.702 144.182 C 78.011 145.475,78.197 148.800,80.961 148.800 C 81.020 148.800,81.054 148.035,81.035 147.100 L 81.000 145.400 82.700 145.277 C 84.234 145.166,84.405 145.244,84.446 146.077 C 84.480 146.755,84.541 146.814,84.676 146.300 C 84.795 145.842,85.249 145.600,85.987 145.600 C 87.083 145.600,87.106 145.557,86.780 144.110 C 86.395 142.405,86.736 142.012,88.600 142.012 C 89.959 142.012,90.577 142.331,90.908 143.200 C 91.069 143.621,91.146 143.550,91.168 142.962 C 91.231 141.308,89.309 140.429,86.200 140.690 M128.200 140.696 C 127.177 140.915,126.393 141.923,126.425 142.976 C 126.449 143.757,126.470 143.753,126.812 142.900 C 127.099 142.187,127.489 142.001,128.687 142.006 C 130.879 142.015,131.217 142.349,130.820 144.110 C 130.494 145.557,130.517 145.600,131.613 145.600 C 132.351 145.600,132.805 145.842,132.924 146.300 C 133.059 146.814,133.120 146.755,133.154 146.077 C 133.195 145.244,133.366 145.166,134.900 145.277 L 136.600 145.400 136.565 147.100 C 136.546 148.035,136.580 148.800,136.639 148.800 C 139.403 148.800,139.589 145.475,136.898 144.182 C 135.962 143.733,134.702 142.805,134.098 142.121 C 132.992 140.867,130.364 140.232,128.200 140.696 M240.494 146.399 C 238.991 147.028,238.800 148.409,238.800 158.639 C 238.800 168.994,238.976 170.186,240.737 171.755 C 241.203 172.170,241.689 173.160,241.818 173.955 C 242.222 176.457,243.207 178.713,244.172 179.345 C 244.717 179.702,245.211 180.534,245.365 181.356 C 245.510 182.127,246.227 183.475,246.958 184.350 C 247.754 185.302,248.393 186.593,248.547 187.561 C 248.700 188.517,249.303 189.745,250.021 190.562 C 250.689 191.323,251.457 192.723,251.728 193.673 C 252.104 194.990,252.516 195.531,253.466 195.953 C 254.621 196.466,254.724 196.678,254.882 198.865 C 255.144 202.487,255.319 202.576,262.449 202.729 C 268.977 202.870,270.000 202.582,270.000 200.610 C 270.000 200.020,270.410 199.562,271.290 199.172 C 272.287 198.729,272.691 198.209,273.072 196.873 C 273.343 195.923,274.111 194.523,274.779 193.762 C 275.509 192.931,276.100 191.718,276.259 190.722 C 276.430 189.654,277.007 188.531,277.882 187.562 C 278.677 186.682,279.339 185.453,279.477 184.601 C 279.622 183.708,280.066 182.913,280.623 182.548 C 281.627 181.890,282.800 179.332,282.800 177.801 C 282.800 177.212,283.175 176.572,283.738 176.204 C 284.867 175.464,285.523 174.115,286.014 171.526 C 286.216 170.463,286.790 169.041,287.290 168.365 C 288.206 167.127,288.944 151.424,288.222 148.546 C 287.768 146.735,285.407 146.000,280.045 146.000 C 273.526 146.000,274.000 145.197,274.000 156.248 C 274.000 165.165,273.992 165.245,273.061 166.119 C 271.773 167.327,271.328 168.274,270.991 170.520 C 270.794 171.836,270.277 172.950,269.350 174.060 C 268.535 175.035,267.894 176.322,267.739 177.294 C 267.587 178.245,266.983 179.475,266.270 180.287 C 265.604 181.045,264.856 182.469,264.606 183.452 C 264.115 185.386,264.115 185.386,261.900 184.723 C 260.471 184.295,260.400 184.193,260.400 182.563 C 260.400 180.103,259.796 178.827,258.402 178.341 C 257.475 178.017,257.199 177.680,257.198 176.861 C 257.193 174.666,256.395 172.818,255.181 172.190 C 253.795 171.473,253.849 172.072,253.819 157.118 C 253.795 145.301,254.382 146.233,246.887 146.110 C 243.869 146.061,240.992 146.191,240.494 146.399 M291.322 146.404 C 290.759 146.631,290.358 147.232,290.205 148.079 C 289.689 150.931,290.171 201.532,290.720 202.080 C 291.613 202.973,303.366 202.806,304.286 201.887 C 304.914 201.259,305.024 200.128,305.200 192.487 L 305.400 183.800 308.856 183.685 L 312.311 183.570 312.740 184.801 C 313.025 185.617,313.578 186.173,314.385 186.455 C 315.513 186.848,315.600 187.017,315.600 188.813 C 315.600 191.160,316.129 192.662,317.437 194.034 C 318.128 194.758,318.546 195.837,318.834 197.634 C 319.609 202.470,320.547 202.929,329.259 202.732 C 334.346 202.617,335.229 202.500,335.959 201.838 C 337.481 200.459,336.838 198.232,334.700 197.473 C 334.161 197.282,334.000 196.769,334.000 195.239 C 334.000 192.809,333.518 191.467,332.038 189.782 C 331.307 188.950,330.803 187.817,330.620 186.593 C 330.250 184.128,329.694 182.954,328.538 182.196 C 327.295 181.382,327.352 180.562,328.696 179.918 C 329.299 179.629,330.034 178.889,330.329 178.274 C 330.624 177.659,331.263 177.004,331.749 176.819 C 333.204 176.266,333.676 175.349,333.994 172.458 C 334.200 170.578,334.583 169.320,335.206 168.477 C 336.823 166.290,336.847 161.684,335.249 160.050 C 334.233 159.011,334.000 158.444,334.000 157.012 C 334.000 154.557,333.399 153.228,332.082 152.769 C 331.319 152.503,330.837 151.964,330.580 151.089 C 330.296 150.126,329.874 149.704,328.911 149.420 C 328.036 149.163,327.497 148.681,327.231 147.918 C 327.013 147.290,326.379 146.620,325.794 146.398 C 324.484 145.900,292.560 145.906,291.322 146.404 M74.247 147.806 C 73.710 148.392,73.120 149.033,72.935 149.232 C 72.751 149.430,72.015 150.060,71.300 150.632 C 70.585 151.203,70.000 151.880,70.000 152.136 C 70.000 152.391,69.352 153.117,68.560 153.749 C 66.457 155.427,66.937 157.851,69.446 158.225 C 70.975 158.453,71.761 157.893,71.820 156.533 C 71.861 155.609,72.094 155.373,73.186 155.149 C 74.647 154.850,75.185 154.248,75.194 152.900 C 75.199 152.215,75.433 152.000,76.171 152.000 C 79.019 152.000,79.318 147.619,76.511 147.017 C 75.432 146.786,75.064 146.914,74.247 147.806 M140.541 147.077 C 138.213 147.532,139.019 152.000,141.429 152.000 C 142.167 152.000,142.401 152.215,142.406 152.900 C 142.415 154.248,142.953 154.850,144.414 155.149 C 145.506 155.373,145.739 155.609,145.780 156.533 C 145.840 157.903,146.626 158.453,148.190 158.219 C 150.706 157.843,151.141 155.426,149.000 153.717 C 148.230 153.103,147.600 152.391,147.600 152.136 C 147.600 151.880,147.015 151.203,146.300 150.632 C 145.585 150.060,144.849 149.430,144.665 149.232 C 144.480 149.033,143.903 148.405,143.383 147.835 C 142.446 146.811,142.216 146.749,140.541 147.077 M251.073 147.844 C 252.418 148.846,252.780 153.840,252.021 160.908 C 251.505 165.718,252.477 171.115,254.342 173.800 C 254.954 174.680,255.762 176.228,256.137 177.240 C 256.513 178.252,257.261 179.493,257.799 179.999 C 258.337 180.505,259.049 181.850,259.380 182.989 C 259.855 184.624,260.400 185.412,261.975 186.740 L 263.968 188.421 264.536 187.510 C 264.849 187.010,265.211 186.140,265.340 185.578 C 265.470 185.016,266.121 183.756,266.787 182.778 C 267.453 181.800,268.174 180.370,268.389 179.600 C 268.604 178.830,269.414 177.216,270.190 176.013 C 270.965 174.811,271.601 173.551,271.602 173.213 C 271.603 172.876,272.271 171.340,273.086 169.800 L 274.567 167.000 274.784 157.467 C 275.042 146.104,274.687 146.800,280.223 146.800 C 283.372 146.800,284.047 146.922,284.986 147.660 L 286.079 148.520 285.900 158.360 C 285.712 168.705,285.351 171.083,283.639 173.260 C 283.219 173.794,282.409 175.379,281.838 176.783 C 281.267 178.187,280.545 179.621,280.232 179.968 C 279.919 180.316,279.276 181.590,278.803 182.800 C 278.330 184.010,277.499 185.467,276.956 186.038 C 276.414 186.608,275.795 187.709,275.581 188.483 C 275.368 189.257,274.655 190.680,273.997 191.645 C 273.340 192.610,272.618 194.062,272.393 194.871 C 272.168 195.681,271.403 197.074,270.692 197.968 C 269.982 198.862,268.969 200.150,268.442 200.831 L 267.483 202.068 263.169 201.934 C 257.943 201.772,256.966 201.247,255.919 198.037 C 255.545 196.889,254.697 195.333,254.036 194.580 C 253.375 193.827,252.646 192.533,252.416 191.705 C 252.186 190.877,251.458 189.407,250.798 188.438 C 250.138 187.469,249.417 186.007,249.197 185.190 C 248.977 184.373,248.462 183.276,248.053 182.752 C 247.643 182.228,246.809 180.810,246.200 179.600 C 245.591 178.390,244.753 176.967,244.339 176.437 C 243.925 175.907,243.301 174.467,242.953 173.237 C 242.606 172.007,241.844 170.293,241.261 169.428 L 240.200 167.856 240.312 158.255 C 240.384 152.041,240.578 148.467,240.862 148.125 C 242.138 146.588,249.130 146.395,251.073 147.844 M323.000 147.239 C 323.880 147.479,325.050 148.087,325.600 148.592 C 326.150 149.096,327.180 149.801,327.888 150.158 C 328.597 150.516,329.388 151.211,329.646 151.704 C 329.904 152.197,330.690 153.243,331.392 154.028 C 333.353 156.222,334.301 161.737,333.647 167.137 C 332.919 173.137,332.669 173.738,329.569 176.939 C 326.001 180.622,326.020 180.510,328.175 184.969 C 329.179 187.046,330.000 188.990,330.000 189.287 C 330.000 189.584,330.611 190.775,331.358 191.934 C 332.104 193.093,332.835 194.842,332.982 195.819 C 333.129 196.799,333.686 198.116,334.224 198.756 C 336.024 200.895,333.922 202.007,328.116 201.986 C 322.617 201.966,321.420 201.085,319.807 195.870 C 319.318 194.291,318.467 192.336,317.914 191.526 C 317.362 190.715,316.787 189.281,316.637 188.339 C 316.020 184.486,313.594 182.800,308.664 182.800 C 303.452 182.800,303.623 182.491,303.501 192.157 L 303.400 200.115 302.269 200.957 C 301.291 201.687,300.584 201.800,297.011 201.800 C 290.521 201.800,291.200 205.003,291.200 174.400 C 291.200 146.135,291.078 147.653,293.400 147.088 C 295.101 146.673,321.414 146.808,323.000 147.239 M304.500 157.803 C 303.630 158.424,303.600 158.661,303.600 164.958 L 303.600 171.472 304.619 171.936 C 307.493 173.246,316.741 172.386,319.582 170.546 C 322.961 168.356,322.803 168.597,322.760 165.681 C 322.701 161.675,322.453 161.136,320.183 160.064 C 319.092 159.549,317.781 158.739,317.269 158.264 C 316.005 157.090,306.003 156.729,304.500 157.803 M315.968 158.916 C 316.414 160.088,317.049 160.583,318.852 161.163 C 321.149 161.902,321.795 162.899,321.798 165.705 L 321.800 168.131 319.622 168.626 C 318.021 168.990,317.174 169.450,316.422 170.364 L 315.400 171.607 310.300 171.604 L 305.200 171.600 305.200 165.067 C 305.200 161.473,305.320 158.413,305.467 158.267 C 306.307 157.427,315.621 158.003,315.968 158.916 M64.415 160.184 C 63.108 161.576,63.666 164.751,65.225 164.794 C 65.349 164.797,65.439 163.945,65.425 162.900 L 65.400 161.000 66.900 160.876 C 67.886 160.794,68.400 160.920,68.400 161.243 C 68.400 161.512,68.499 161.635,68.619 161.514 C 68.740 161.393,68.721 160.823,68.576 160.247 C 68.208 158.783,65.766 158.746,64.415 160.184 M149.024 160.247 C 148.879 160.823,148.860 161.393,148.981 161.514 C 149.101 161.635,149.200 161.512,149.200 161.243 C 149.200 160.920,149.714 160.794,150.700 160.876 L 152.200 161.000 152.175 162.900 C 152.161 163.945,152.251 164.797,152.375 164.794 C 153.896 164.752,154.489 161.448,153.218 160.100 C 151.931 158.736,149.381 158.825,149.024 160.247 M61.362 166.042 C 59.679 167.902,60.683 173.628,62.817 174.339 C 63.202 174.467,63.157 174.299,62.676 173.818 C 62.110 173.252,61.989 172.570,62.083 170.454 L 62.200 167.800 63.900 167.835 C 65.705 167.871,65.985 167.466,65.186 165.974 C 64.608 164.894,62.364 164.935,61.362 166.042 M152.414 165.974 C 151.615 167.466,151.895 167.871,153.700 167.835 L 155.400 167.800 155.517 170.454 C 155.611 172.570,155.490 173.252,154.924 173.818 C 154.443 174.299,154.398 174.467,154.783 174.339 C 156.917 173.628,157.921 167.902,156.238 166.042 C 155.236 164.935,152.992 164.894,152.414 165.974 M61.640 185.041 C 60.127 186.964,60.024 190.879,61.445 192.450 C 62.368 193.469,64.635 193.455,65.186 192.426 C 65.985 190.934,65.705 190.529,63.900 190.565 L 62.200 190.600 62.083 187.946 C 61.993 185.921,62.119 185.138,62.611 184.646 C 62.967 184.291,63.077 184.000,62.858 184.000 C 62.638 184.000,62.090 184.468,61.640 185.041 M154.924 184.582 C 155.490 185.148,155.611 185.830,155.517 187.946 L 155.400 190.600 153.700 190.565 C 151.895 190.529,151.615 190.934,152.414 192.426 C 152.992 193.506,155.236 193.465,156.238 192.358 C 157.921 190.498,156.917 184.772,154.783 184.061 C 154.398 183.933,154.443 184.101,154.924 184.582 M64.470 193.948 C 62.342 195.298,64.053 199.200,66.772 199.200 C 68.239 199.200,69.435 197.702,68.619 196.886 C 68.499 196.765,68.400 196.888,68.400 197.157 C 68.400 197.480,67.886 197.606,66.900 197.524 L 65.400 197.400 65.425 195.500 C 65.451 193.532,65.360 193.384,64.470 193.948 M152.175 195.500 L 152.200 197.400 150.700 197.524 C 149.714 197.606,149.200 197.480,149.200 197.157 C 149.200 196.888,149.101 196.765,148.981 196.886 C 148.165 197.702,149.361 199.200,150.828 199.200 C 153.547 199.200,155.258 195.298,153.130 193.948 C 152.240 193.384,152.149 193.532,152.175 195.500 M67.963 200.837 C 66.772 202.028,67.001 203.407,68.600 204.683 C 69.370 205.297,70.000 206.009,70.000 206.264 C 70.000 206.520,70.585 207.197,71.300 207.768 C 72.015 208.340,72.751 208.970,72.935 209.168 C 73.120 209.367,73.710 210.008,74.247 210.594 C 75.064 211.486,75.432 211.614,76.511 211.383 C 79.318 210.781,79.019 206.400,76.171 206.400 C 75.433 206.400,75.199 206.185,75.194 205.500 C 75.185 204.146,74.646 203.550,73.152 203.240 C 72.121 203.026,71.823 202.774,71.898 202.180 C 72.140 200.268,69.450 199.350,67.963 200.837 M146.414 200.378 C 146.092 200.584,145.807 201.255,145.780 201.867 C 145.739 202.791,145.506 203.027,144.414 203.251 C 142.953 203.550,142.415 204.152,142.406 205.500 C 142.401 206.185,142.167 206.400,141.429 206.400 C 138.581 206.400,138.282 210.781,141.089 211.383 C 142.399 211.663,142.373 211.679,144.729 209.104 C 144.878 208.941,145.585 208.340,146.300 207.768 C 147.015 207.197,147.600 206.520,147.600 206.264 C 147.600 206.009,148.230 205.297,149.000 204.683 C 151.687 202.539,149.284 198.540,146.414 200.378 M79.676 210.021 C 77.975 210.704,78.586 213.201,80.702 214.218 C 81.638 214.667,82.898 215.619,83.502 216.333 C 85.405 218.582,91.234 218.055,91.188 215.638 C 91.177 215.093,91.117 215.102,90.768 215.700 C 89.609 217.690,86.181 216.157,86.819 213.934 C 87.122 212.877,87.066 212.800,86.001 212.800 C 85.249 212.800,84.796 212.561,84.676 212.100 C 84.541 211.586,84.480 211.645,84.446 212.323 C 84.405 213.156,84.234 213.234,82.700 213.123 L 81.000 213.000 81.035 211.300 C 81.072 209.472,81.064 209.465,79.676 210.021 M136.565 211.300 L 136.600 213.000 134.900 213.123 C 133.366 213.234,133.195 213.156,133.154 212.323 C 133.120 211.645,133.059 211.586,132.924 212.100 C 132.803 212.564,132.350 212.800,131.581 212.800 C 130.503 212.800,130.448 212.873,130.805 213.814 C 131.684 216.125,128.077 217.838,126.832 215.700 C 126.494 215.119,126.422 215.106,126.412 215.624 C 126.363 218.139,132.127 218.674,134.098 216.337 C 134.702 215.621,135.962 214.667,136.898 214.218 C 139.589 212.925,139.403 209.600,136.639 209.600 C 136.580 209.600,136.546 210.365,136.565 211.300 M92.724 216.271 C 91.941 216.478,91.620 218.212,92.134 219.456 C 92.874 221.246,95.973 221.684,100.165 220.592 C 103.982 219.598,104.102 219.241,100.537 219.486 C 95.752 219.814,94.531 219.317,95.068 217.261 C 95.198 216.764,95.695 216.382,96.341 216.283 C 96.923 216.193,96.500 216.114,95.400 216.106 C 94.300 216.099,93.096 216.173,92.724 216.271 M123.273 217.700 L 123.400 219.400 118.642 219.388 C 114.533 219.377,114.043 219.442,115.042 219.865 C 118.601 221.371,123.722 221.538,125.204 220.196 C 126.267 219.234,126.281 216.978,125.226 216.414 C 123.619 215.554,123.136 215.872,123.273 217.700 M195.454 227.629 C 194.132 228.669,193.971 230.942,195.174 231.586 C 196.452 232.270,196.671 232.078,196.635 230.300 L 196.600 228.600 200.000 228.600 L 203.400 228.600 203.365 230.300 C 203.329 232.078,203.548 232.270,204.826 231.586 C 206.029 230.942,205.868 228.669,204.546 227.629 C 203.663 226.934,202.927 226.800,200.000 226.800 C 197.073 226.800,196.337 226.934,195.454 227.629 M189.692 230.268 C 189.412 230.380,188.914 230.993,188.585 231.629 C 188.256 232.266,187.469 233.054,186.837 233.381 C 186.197 233.712,185.494 234.529,185.252 235.224 C 185.012 235.910,184.363 236.829,183.808 237.265 C 182.691 238.143,182.585 238.690,183.247 240.144 C 183.697 241.130,185.431 241.797,185.837 241.140 C 185.957 240.946,186.251 240.908,186.489 241.055 C 186.739 241.209,186.809 241.139,186.655 240.889 C 186.508 240.651,186.553 240.353,186.756 240.227 C 186.959 240.102,187.031 239.639,186.916 239.200 C 186.741 238.529,186.904 238.400,187.925 238.400 C 189.392 238.400,190.400 237.493,190.400 236.171 C 190.400 235.410,190.610 235.200,191.371 235.200 C 193.645 235.200,194.423 232.305,192.546 230.829 C 191.514 230.017,190.709 229.859,189.692 230.268 M207.454 230.829 C 205.577 232.305,206.355 235.200,208.629 235.200 C 209.390 235.200,209.600 235.410,209.600 236.171 C 209.600 237.493,210.608 238.400,212.075 238.400 C 213.096 238.400,213.259 238.529,213.084 239.200 C 212.969 239.639,213.041 240.102,213.244 240.227 C 213.447 240.353,213.492 240.651,213.345 240.889 C 213.191 241.139,213.261 241.209,213.511 241.055 C 213.749 240.908,214.043 240.946,214.163 241.140 C 214.569 241.797,216.303 241.130,216.753 240.144 C 217.415 238.690,217.309 238.143,216.192 237.265 C 215.637 236.829,214.988 235.910,214.748 235.224 C 214.506 234.529,213.803 233.712,213.163 233.381 C 212.531 233.054,211.747 232.271,211.422 231.642 C 210.473 229.808,209.107 229.528,207.454 230.829 M193.000 232.400 C 193.136 232.620,192.947 232.800,192.581 232.800 C 192.163 232.800,191.997 233.016,192.137 233.380 C 192.285 233.767,192.167 233.885,191.780 233.737 C 191.416 233.597,191.200 233.763,191.200 234.181 C 191.200 234.547,191.020 234.736,190.800 234.600 C 189.776 233.967,190.364 232.000,191.576 232.000 C 192.223 232.000,192.864 232.180,193.000 232.400 M209.600 233.176 C 209.600 233.823,209.420 234.464,209.200 234.600 C 208.980 234.736,208.800 234.547,208.800 234.181 C 208.800 233.763,208.584 233.597,208.220 233.737 C 207.833 233.885,207.715 233.767,207.863 233.380 C 208.003 233.016,207.837 232.800,207.419 232.800 C 207.053 232.800,206.864 232.620,207.000 232.400 C 207.633 231.376,209.600 231.964,209.600 233.176 M189.800 235.600 C 189.936 235.820,189.747 236.000,189.381 236.000 C 188.963 236.000,188.797 236.216,188.937 236.580 C 189.085 236.967,188.967 237.085,188.580 236.937 C 188.216 236.797,188.000 236.963,188.000 237.381 C 188.000 237.747,187.820 237.936,187.600 237.800 C 186.576 237.167,187.164 235.200,188.376 235.200 C 189.023 235.200,189.664 235.380,189.800 235.600 M212.800 236.376 C 212.800 237.023,212.620 237.664,212.400 237.800 C 212.180 237.936,212.000 237.747,212.000 237.381 C 212.000 236.963,211.784 236.797,211.420 236.937 C 211.033 237.085,210.915 236.967,211.063 236.580 C 211.203 236.216,211.037 236.000,210.619 236.000 C 210.253 236.000,210.064 235.820,210.200 235.600 C 210.833 234.576,212.800 235.164,212.800 236.376 M179.462 243.531 C 178.572 244.515,178.628 245.674,179.629 246.946 C 180.603 248.185,181.432 248.380,180.814 247.226 C 179.852 245.428,180.271 244.400,181.967 244.400 C 182.846 244.400,183.622 244.619,183.735 244.900 C 183.846 245.175,183.951 245.031,183.968 244.580 C 184.038 242.779,180.821 242.030,179.462 243.531 M216.480 243.280 C 216.216 243.544,216.014 244.129,216.032 244.580 C 216.049 245.031,216.154 245.175,216.265 244.900 C 216.378 244.619,217.154 244.400,218.033 244.400 C 219.729 244.400,220.148 245.428,219.186 247.226 C 218.568 248.380,219.397 248.185,220.371 246.946 C 222.397 244.371,218.789 240.971,216.480 243.280 M182.914 247.042 C 182.427 247.569,182.189 248.000,182.386 248.000 C 182.856 248.000,184.000 246.845,184.000 246.371 C 184.000 245.888,183.958 245.913,182.914 247.042 M216.012 246.271 C 216.005 246.531,216.283 247.026,216.629 247.371 C 216.974 247.717,217.469 247.995,217.729 247.988 C 217.988 247.981,217.891 247.795,217.513 247.575 C 217.135 247.355,216.645 246.865,216.425 246.487 C 216.205 246.109,216.019 246.012,216.012 246.271 M176.470 249.726 C 175.440 250.822,175.375 251.684,176.224 252.980 C 177.150 254.393,178.075 254.648,177.583 253.355 C 176.812 251.328,177.057 250.800,178.767 250.800 C 179.646 250.800,180.422 251.019,180.535 251.300 C 180.646 251.575,180.751 251.408,180.768 250.929 C 180.844 248.851,178.031 248.064,176.470 249.726 M219.829 249.429 C 219.483 249.774,219.214 250.449,219.232 250.929 C 219.249 251.408,219.354 251.575,219.465 251.300 C 219.578 251.019,220.354 250.800,221.233 250.800 C 222.943 250.800,223.188 251.328,222.417 253.355 C 221.925 254.648,222.850 254.393,223.776 252.980 C 225.464 250.405,221.984 247.274,219.829 249.429 M179.714 253.442 C 179.227 253.969,178.989 254.400,179.186 254.400 C 179.656 254.400,180.800 253.245,180.800 252.771 C 180.800 252.288,180.758 252.313,179.714 253.442 M219.212 252.671 C 219.205 252.931,219.483 253.426,219.829 253.771 C 220.174 254.117,220.669 254.395,220.929 254.388 C 221.188 254.381,221.091 254.195,220.713 253.975 C 220.335 253.755,219.845 253.265,219.625 252.887 C 219.405 252.509,219.219 252.412,219.212 252.671 M173.190 256.500 C 172.460 257.281,172.383 257.701,172.610 259.672 C 172.898 262.169,172.618 263.600,171.843 263.600 C 169.823 263.600,168.594 267.651,170.088 269.387 L 171.057 270.515 171.029 268.557 C 170.999 266.516,173.095 265.336,174.039 266.864 C 174.217 267.152,174.273 265.770,174.162 263.794 C 173.897 259.040,174.166 257.598,175.318 257.606 C 176.374 257.613,177.000 257.989,177.308 258.800 C 177.434 259.130,177.551 258.761,177.568 257.980 C 177.623 255.508,174.959 254.608,173.190 256.500 M222.880 256.080 C 222.616 256.344,222.414 257.199,222.432 257.980 C 222.449 258.761,222.566 259.130,222.692 258.800 C 223.000 257.989,223.626 257.613,224.682 257.606 C 225.834 257.598,226.103 259.040,225.838 263.794 C 225.727 265.770,225.783 267.152,225.961 266.864 C 226.905 265.336,229.001 266.516,228.971 268.557 L 228.943 270.515 229.912 269.387 C 231.406 267.651,230.177 263.600,228.157 263.600 C 227.382 263.600,227.102 262.169,227.390 259.672 C 227.770 256.376,224.883 254.077,222.880 256.080 M166.870 272.126 C 166.391 272.635,166.000 273.259,166.000 273.512 C 166.000 273.765,165.486 274.563,164.857 275.286 C 164.052 276.211,163.650 277.183,163.498 278.570 C 163.313 280.262,163.055 280.729,161.670 281.880 C 160.378 282.952,160.085 283.437,160.201 284.310 C 160.280 284.909,160.357 285.535,160.372 285.700 C 160.482 286.887,161.484 285.766,161.446 284.500 C 161.400 283.009,161.409 283.000,163.002 283.000 C 164.602 283.000,164.603 282.999,164.464 281.547 C 164.302 279.858,164.751 279.453,166.705 279.527 C 168.070 279.578,168.082 279.564,167.824 278.189 C 167.640 277.208,167.710 276.800,168.062 276.800 C 168.449 276.800,168.453 276.693,168.080 276.320 C 166.843 275.083,167.499 273.200,169.167 273.200 C 170.046 273.200,170.822 273.419,170.935 273.700 C 171.046 273.975,171.151 273.808,171.168 273.329 C 171.244 271.251,168.431 270.464,166.870 272.126 M229.429 271.829 C 229.083 272.174,228.814 272.849,228.832 273.329 C 228.849 273.808,228.954 273.975,229.065 273.700 C 229.178 273.419,229.954 273.200,230.833 273.200 C 232.501 273.200,233.157 275.083,231.920 276.320 C 231.547 276.693,231.551 276.800,231.938 276.800 C 232.290 276.800,232.360 277.208,232.176 278.189 C 231.918 279.564,231.930 279.578,233.295 279.527 C 235.249 279.453,235.698 279.858,235.536 281.547 C 235.397 282.999,235.398 283.000,236.998 283.000 C 238.591 283.000,238.600 283.009,238.554 284.500 C 238.516 285.766,239.518 286.887,239.628 285.700 C 239.643 285.535,239.720 284.909,239.799 284.310 C 239.915 283.437,239.622 282.952,238.330 281.880 C 236.945 280.729,236.687 280.262,236.502 278.570 C 236.350 277.183,235.948 276.211,235.143 275.286 C 234.514 274.563,234.000 273.740,234.000 273.456 C 234.000 271.755,230.683 270.574,229.429 271.829 M170.114 275.842 C 169.627 276.369,169.389 276.800,169.586 276.800 C 170.056 276.800,171.200 275.645,171.200 275.171 C 171.200 274.688,171.158 274.713,170.114 275.842 M228.812 275.071 C 228.805 275.331,229.083 275.826,229.429 276.171 C 229.774 276.517,230.269 276.795,230.529 276.788 C 230.788 276.781,230.691 276.595,230.313 276.375 C 229.935 276.155,229.445 275.665,229.225 275.287 C 229.005 274.909,228.819 274.812,228.812 275.071 M153.862 285.131 C 152.272 286.888,153.151 289.600,155.309 289.600 C 156.099 289.600,156.108 289.567,155.442 289.080 C 154.083 288.087,154.733 286.178,156.384 286.313 C 157.146 286.375,157.908 286.645,158.078 286.913 C 158.295 287.254,158.390 287.199,158.394 286.729 C 158.410 284.960,155.080 283.786,153.862 285.131 M242.654 285.229 C 242.074 285.685,241.603 286.360,241.606 286.729 C 241.610 287.199,241.705 287.254,241.922 286.913 C 242.092 286.645,242.854 286.375,243.616 286.313 C 245.267 286.178,245.917 288.087,244.558 289.080 C 243.892 289.567,243.901 289.600,244.691 289.600 C 246.398 289.600,246.800 289.184,246.800 287.419 C 246.800 284.601,244.798 283.543,242.654 285.229 M144.727 288.214 C 141.902 289.749,143.018 292.795,146.400 292.780 C 147.986 292.773,148.105 292.714,147.400 292.286 C 144.994 290.825,146.862 288.880,150.228 289.342 C 152.341 289.631,152.431 289.451,150.700 288.396 C 149.156 287.454,146.288 287.367,144.727 288.214 M157.314 288.642 C 156.827 289.169,156.589 289.600,156.786 289.600 C 157.256 289.600,158.400 288.445,158.400 287.971 C 158.400 287.488,158.358 287.513,157.314 288.642 M241.612 287.871 C 241.605 288.131,241.883 288.626,242.229 288.971 C 242.574 289.317,243.069 289.595,243.329 289.588 C 243.588 289.581,243.491 289.395,243.113 289.175 C 242.735 288.955,242.245 288.465,242.025 288.087 C 241.805 287.709,241.619 287.612,241.612 287.871 M249.300 288.396 C 247.569 289.451,247.659 289.631,249.772 289.342 C 253.138 288.880,255.006 290.825,252.600 292.286 C 251.895 292.714,252.014 292.773,253.600 292.780 C 255.684 292.789,256.186 292.539,256.573 291.300 C 257.516 288.280,252.666 286.343,249.300 288.396 M24.012 294.271 C 23.996 294.881,25.119 296.004,25.729 295.988 C 25.988 295.981,25.891 295.795,25.513 295.575 C 25.135 295.355,24.645 294.865,24.425 294.487 C 24.205 294.109,24.019 294.012,24.012 294.271 M374.914 295.042 C 374.427 295.569,374.189 296.000,374.386 296.000 C 374.856 296.000,376.000 294.845,376.000 294.371 C 376.000 293.888,375.958 293.913,374.914 295.042 " stroke="none" fill="#2d2d2d" fill-rule="evenodd"></path><path id="path2" d="" stroke="none" fill="#993333" fill-rule="evenodd"></path><path id="path3" d="M25.114 104.789 C 23.684 105.947,23.900 107.535,25.550 107.990 C 27.590 108.554,28.557 107.602,27.999 105.581 C 27.563 104.002,26.460 103.700,25.114 104.789 M372.010 105.550 C 371.443 107.603,372.397 108.557,374.450 107.990 C 375.687 107.649,375.873 107.445,375.774 106.540 C 375.495 104.000,372.644 103.251,372.010 105.550 M95.771 139.106 C 94.039 140.292,95.198 142.106,97.721 142.160 C 99.657 142.202,100.814 141.345,100.611 140.020 C 100.553 139.642,100.923 139.301,101.558 139.147 C 102.147 139.004,101.210 138.877,99.400 138.853 C 97.640 138.831,96.007 138.944,95.771 139.106 M114.349 139.500 C 113.855 140.129,113.868 140.147,114.478 139.669 C 115.284 139.038,116.979 139.190,117.050 139.900 C 117.078 140.175,117.123 140.740,117.150 141.157 C 117.283 143.166,123.200 142.613,123.200 140.591 C 123.200 138.943,122.819 138.800,118.416 138.800 C 115.541 138.800,114.798 138.928,114.349 139.500 M112.993 140.392 C 114.303 141.760,115.560 142.205,115.418 141.251 C 115.365 140.893,115.069 140.576,114.761 140.546 C 114.452 140.517,113.975 140.472,113.700 140.446 C 113.425 140.421,113.245 140.199,113.300 139.953 C 113.355 139.707,113.064 139.450,112.652 139.382 C 112.033 139.278,112.092 139.452,112.993 140.392 M86.958 142.566 C 86.838 142.878,86.799 143.643,86.870 144.266 C 87.096 146.236,90.800 145.414,90.800 143.394 C 90.800 142.020,87.445 141.297,86.958 142.566 M127.085 142.248 C 125.951 143.382,127.128 145.060,129.200 145.263 C 130.590 145.399,130.600 145.388,130.600 143.800 C 130.600 142.225,128.178 141.156,127.085 142.248 M80.956 145.771 C 80.459 147.065,80.977 148.197,82.124 148.329 C 83.584 148.496,84.400 147.787,84.400 146.351 C 84.400 145.044,81.427 144.543,80.956 145.771 M133.200 146.328 C 133.200 147.786,134.009 148.497,135.476 148.329 C 137.608 148.084,137.108 145.437,134.900 145.277 C 133.258 145.158,133.200 145.194,133.200 146.328 M242.550 147.211 C 240.466 147.855,240.440 147.982,240.316 158.252 L 240.200 167.859 241.261 169.430 C 241.844 170.293,242.611 172.026,242.966 173.280 C 243.320 174.533,243.793 175.672,244.015 175.809 C 244.238 175.947,245.065 177.351,245.853 178.930 C 246.641 180.508,247.604 182.160,247.993 182.600 C 248.382 183.040,249.009 184.351,249.386 185.512 C 249.764 186.674,250.478 188.114,250.974 188.712 C 251.469 189.311,252.175 190.694,252.543 191.786 C 252.910 192.879,253.730 194.319,254.365 194.986 C 255.001 195.654,255.764 197.081,256.062 198.158 C 256.896 201.177,257.944 201.748,262.986 201.935 C 266.941 202.081,267.179 202.044,267.982 201.144 C 270.722 198.075,271.690 196.673,272.265 194.940 C 272.619 193.873,273.244 192.628,273.655 192.173 C 274.066 191.718,274.846 190.215,275.387 188.832 C 275.929 187.450,276.799 185.892,277.319 185.372 C 277.840 184.851,278.476 183.725,278.732 182.870 C 278.988 182.015,279.660 180.633,280.226 179.800 C 280.792 178.966,281.610 177.335,282.044 176.175 C 282.478 175.015,283.206 173.592,283.662 173.012 C 285.373 170.836,285.700 168.723,285.900 158.527 L 286.090 148.853 285.063 147.827 C 284.107 146.871,283.778 146.800,280.295 146.800 C 274.673 146.800,275.039 146.089,274.800 157.467 L 274.600 167.000 273.354 169.400 C 272.669 170.720,271.878 172.520,271.597 173.400 C 271.315 174.280,270.677 175.489,270.178 176.088 C 269.680 176.686,268.960 178.126,268.578 179.288 C 268.195 180.449,267.493 181.869,267.016 182.442 C 266.540 183.015,265.746 184.590,265.253 185.942 C 264.183 188.876,264.431 188.830,261.799 186.582 C 260.057 185.093,259.586 184.410,259.204 182.815 C 258.946 181.743,258.364 180.536,257.910 180.133 C 257.456 179.730,256.662 178.454,256.146 177.297 C 255.630 176.141,254.763 174.521,254.219 173.697 C 252.308 170.804,251.498 165.886,252.011 160.287 C 252.721 152.539,252.457 148.875,251.117 147.876 C 249.873 146.949,244.700 146.547,242.550 147.211 M293.600 147.091 C 291.055 147.554,291.200 145.899,291.200 174.400 C 291.200 205.003,290.521 201.800,297.012 201.800 C 300.585 201.800,301.292 201.687,302.270 200.957 L 303.400 200.115 303.501 192.157 C 303.623 182.491,303.452 182.800,308.664 182.800 C 313.679 182.800,315.896 184.354,316.781 188.488 C 317.029 189.650,317.657 191.230,318.177 192.000 C 318.696 192.770,319.420 194.455,319.785 195.745 C 321.238 200.878,322.717 202.000,328.032 202.000 C 333.566 202.000,335.371 201.013,334.021 198.725 C 333.587 197.989,333.029 196.440,332.780 195.282 C 332.532 194.124,331.921 192.687,331.422 192.088 C 330.924 191.490,330.284 190.280,330.000 189.400 C 329.716 188.520,328.899 186.630,328.184 185.200 C 325.856 180.542,325.860 180.524,329.874 176.358 C 334.872 171.170,335.403 158.535,330.841 153.352 C 329.939 152.327,329.200 151.372,329.200 151.230 C 329.200 151.088,328.615 150.638,327.900 150.230 C 327.185 149.821,326.150 149.073,325.600 148.567 C 325.050 148.061,323.790 147.460,322.800 147.233 C 321.049 146.831,295.706 146.708,293.600 147.091 M248.856 148.430 C 249.633 148.846,249.656 149.186,249.530 158.530 L 249.400 168.200 250.445 170.000 C 251.020 170.990,251.795 172.731,252.167 173.869 C 252.539 175.007,253.123 176.170,253.464 176.453 C 253.805 176.736,254.487 177.875,254.979 178.984 C 255.471 180.093,256.325 181.540,256.876 182.200 C 257.427 182.860,258.010 183.940,258.170 184.600 C 259.300 189.243,264.433 192.255,265.781 189.066 C 266.897 186.424,267.246 185.761,268.220 184.424 C 268.772 183.667,269.320 182.587,269.439 182.024 C 269.727 180.662,270.213 179.680,271.420 178.024 C 271.972 177.267,272.520 176.187,272.639 175.624 C 272.936 174.218,273.440 173.184,274.421 171.969 C 275.754 170.317,275.980 168.361,275.990 158.380 C 276.002 147.462,275.802 148.000,279.847 148.000 C 284.382 148.000,284.000 147.041,284.000 158.417 C 284.000 168.566,283.839 169.861,282.380 171.419 C 281.958 171.870,281.247 173.301,280.800 174.600 C 280.353 175.899,279.633 177.339,279.200 177.800 C 278.767 178.261,278.052 179.687,277.611 180.969 C 277.169 182.251,276.369 183.708,275.832 184.206 C 275.294 184.704,274.661 185.830,274.425 186.709 C 274.188 187.588,273.712 188.541,273.368 188.827 C 272.552 189.504,271.200 192.165,271.200 193.095 C 271.200 193.495,270.495 194.760,269.632 195.908 C 268.770 197.055,267.951 198.512,267.812 199.145 C 267.538 200.394,266.136 200.800,262.098 200.800 C 259.984 200.800,257.456 198.489,257.018 196.157 C 256.883 195.434,256.058 193.893,255.186 192.732 C 254.314 191.571,253.600 190.293,253.600 189.891 C 253.600 188.963,252.562 186.929,251.344 185.469 C 250.825 184.847,250.400 183.985,250.400 183.553 C 250.400 182.484,248.966 179.749,248.265 179.480 C 247.952 179.360,247.404 178.404,247.047 177.355 C 246.689 176.306,246.018 175.045,245.555 174.552 C 245.092 174.059,244.368 172.428,243.947 170.928 C 242.275 164.974,242.213 164.338,242.727 158.513 C 242.994 155.481,243.210 152.064,243.207 150.920 C 243.198 148.179,246.044 146.925,248.856 148.430 M322.822 149.288 C 323.604 149.886,325.098 150.754,326.142 151.216 C 327.403 151.773,328.176 152.412,328.444 153.115 C 328.665 153.698,329.511 154.986,330.323 155.978 L 331.800 157.781 331.800 164.465 L 331.800 171.148 330.700 172.296 C 330.095 172.927,329.600 173.650,329.600 173.903 C 329.600 174.156,328.902 174.923,328.048 175.609 C 327.195 176.295,326.033 177.709,325.466 178.750 L 324.435 180.644 325.192 182.822 C 325.608 184.020,326.046 185.465,326.165 186.034 C 326.284 186.602,326.926 187.752,327.591 188.589 C 328.256 189.425,328.800 190.454,328.800 190.875 C 328.800 191.736,329.800 193.861,330.676 194.863 C 330.995 195.227,331.526 196.559,331.856 197.822 C 332.602 200.679,332.474 200.786,328.274 200.794 C 324.695 200.801,323.802 200.459,323.420 198.937 C 323.270 198.341,322.723 197.348,322.203 196.731 C 321.684 196.113,321.054 194.625,320.805 193.424 C 320.556 192.223,319.893 190.564,319.332 189.738 C 318.771 188.911,318.077 187.453,317.789 186.498 C 316.543 182.357,315.160 181.600,308.839 181.600 C 300.834 181.600,300.800 181.644,300.800 191.986 C 300.800 199.766,300.778 199.984,299.934 200.435 C 298.979 200.946,294.546 200.706,293.951 200.111 C 293.747 199.907,293.638 188.789,293.697 174.195 L 293.800 148.636 294.800 148.341 C 295.350 148.179,301.560 148.081,308.600 148.123 L 321.400 148.200 322.822 149.288 M302.883 156.667 C 300.898 157.645,300.770 158.198,300.890 165.250 L 301.000 171.715 302.128 172.557 C 303.155 173.325,303.873 173.411,310.191 173.525 C 318.314 173.672,319.479 173.431,322.200 171.039 L 324.200 169.282 324.165 165.269 C 324.128 161.082,323.592 159.451,322.077 158.920 C 321.705 158.789,320.950 158.284,320.400 157.796 C 318.246 155.886,306.061 155.101,302.883 156.667 M317.146 158.101 C 317.887 158.596,319.321 159.459,320.333 160.020 C 322.433 161.183,322.703 161.813,322.760 165.681 C 322.803 168.597,322.961 168.356,319.582 170.546 C 316.741 172.386,307.493 173.246,304.619 171.936 L 303.600 171.472 303.600 164.958 C 303.600 156.782,303.224 157.199,310.589 157.201 C 315.323 157.203,315.923 157.285,317.146 158.101 M65.474 161.059 C 65.104 161.430,65.137 163.682,65.522 164.288 C 66.456 165.758,69.224 163.171,68.563 161.447 C 68.360 160.920,65.920 160.613,65.474 161.059 M149.046 161.425 C 148.375 163.172,151.123 165.758,152.088 164.288 C 153.018 162.873,152.248 161.001,150.720 160.959 C 149.860 160.934,149.159 161.130,149.046 161.425 M62.267 167.867 C 61.905 168.228,61.938 172.895,62.306 173.419 C 63.124 174.587,65.009 173.785,65.174 172.200 C 65.583 168.264,64.092 166.041,62.267 167.867 M152.524 168.254 C 152.083 169.404,152.299 172.732,152.862 173.450 C 154.337 175.331,155.725 173.521,155.524 169.979 C 155.390 167.616,153.242 166.382,152.524 168.254 M62.171 185.371 C 62.051 185.851,62.008 187.223,62.076 188.421 L 62.200 190.600 63.571 190.600 C 65.112 190.600,65.867 189.148,65.340 187.200 C 65.191 186.650,65.105 186.046,65.148 185.858 C 65.300 185.208,64.382 184.500,63.388 184.500 C 62.697 184.500,62.323 184.768,62.171 185.371 M152.793 185.008 C 152.562 185.287,152.408 185.670,152.452 185.858 C 152.495 186.046,152.409 186.650,152.260 187.200 C 151.733 189.148,152.488 190.600,154.029 190.600 L 155.400 190.600 155.524 188.421 C 155.728 184.812,154.368 183.111,152.793 185.008 M65.376 194.554 C 64.871 196.567,65.282 197.398,66.800 197.430 C 68.424 197.464,68.860 197.004,68.532 195.603 C 68.087 193.705,65.781 192.938,65.376 194.554 M150.426 193.952 C 148.254 194.558,148.503 197.504,150.720 197.441 C 152.322 197.397,152.738 196.600,152.226 194.559 C 151.970 193.541,151.937 193.530,150.426 193.952 M80.956 210.571 C 80.359 212.126,80.955 212.997,82.700 213.123 C 84.332 213.241,84.400 213.200,84.400 212.103 C 84.400 210.225,81.571 208.967,80.956 210.571 M133.698 210.462 C 132.410 211.750,133.089 213.254,134.900 213.123 C 136.553 213.003,136.600 212.961,136.600 211.600 C 136.600 210.070,134.797 209.363,133.698 210.462 M86.974 213.325 C 86.148 215.477,87.451 216.825,89.791 216.238 C 91.375 215.840,90.868 213.321,89.200 213.302 C 88.870 213.298,88.287 213.165,87.903 213.006 C 87.447 212.817,87.126 212.927,86.974 213.325 M129.219 213.180 C 128.900 213.382,128.487 213.454,128.302 213.339 C 127.725 212.983,126.900 213.968,126.900 215.012 C 126.900 216.089,127.923 216.579,129.659 216.333 C 130.464 216.219,130.600 215.974,130.600 214.633 C 130.600 212.992,130.193 212.564,129.219 213.180 M96.300 216.273 C 95.695 216.372,95.200 216.606,95.200 216.794 C 95.200 216.981,95.100 217.396,94.977 217.716 C 94.496 218.969,95.909 219.601,99.129 219.575 C 101.452 219.555,101.973 219.458,101.267 219.175 C 100.155 218.730,100.309 217.852,101.531 217.672 C 102.209 217.573,102.401 217.749,102.406 218.472 C 102.411 219.148,102.506 219.252,102.758 218.855 C 103.049 218.394,103.137 218.394,103.320 218.855 C 103.461 219.209,103.548 219.231,103.568 218.918 C 103.621 218.113,101.624 216.400,100.632 216.400 C 100.119 216.400,99.183 216.331,98.550 216.246 C 97.918 216.162,96.905 216.174,96.300 216.273 M117.312 216.358 C 115.692 216.639,113.992 217.977,114.006 218.961 C 114.009 219.203,114.168 219.155,114.358 218.855 C 114.649 218.394,114.737 218.394,114.920 218.855 C 115.042 219.162,115.151 218.994,115.168 218.472 C 115.193 217.754,115.397 217.573,116.069 217.672 C 117.291 217.852,117.445 218.730,116.333 219.175 C 115.635 219.455,116.222 219.556,118.667 219.575 C 122.820 219.607,123.200 219.454,123.200 217.757 C 123.200 216.733,123.028 216.399,122.500 216.396 C 122.115 216.393,121.170 216.318,120.400 216.228 C 119.630 216.139,118.240 216.197,117.312 216.358 M196.682 228.652 C 196.336 228.997,196.314 230.511,196.643 231.367 C 197.100 232.559,203.119 232.261,203.428 231.032 C 203.973 228.861,203.651 228.609,200.177 228.485 C 198.409 228.422,196.836 228.497,196.682 228.652 M190.400 233.176 C 190.400 233.823,190.580 234.464,190.800 234.600 C 191.020 234.736,191.200 234.547,191.200 234.181 C 191.200 233.763,191.416 233.597,191.780 233.737 C 192.167 233.885,192.285 233.767,192.137 233.380 C 191.997 233.016,192.163 232.800,192.581 232.800 C 192.947 232.800,193.136 232.620,193.000 232.400 C 192.367 231.376,190.400 231.964,190.400 233.176 M207.000 232.400 C 206.864 232.620,207.053 232.800,207.419 232.800 C 207.837 232.800,208.003 233.016,207.863 233.380 C 207.715 233.767,207.833 233.885,208.220 233.737 C 208.584 233.597,208.800 233.763,208.800 234.181 C 208.800 234.547,208.980 234.736,209.200 234.600 C 210.224 233.967,209.636 232.000,208.424 232.000 C 207.777 232.000,207.136 232.180,207.000 232.400 M187.200 236.376 C 187.200 237.023,187.380 237.664,187.600 237.800 C 187.820 237.936,188.000 237.747,188.000 237.381 C 188.000 236.963,188.216 236.797,188.580 236.937 C 188.967 237.085,189.085 236.967,188.937 236.580 C 188.797 236.216,188.963 236.000,189.381 236.000 C 189.747 236.000,189.936 235.820,189.800 235.600 C 189.167 234.576,187.200 235.164,187.200 236.376 M210.200 235.600 C 210.064 235.820,210.253 236.000,210.619 236.000 C 211.037 236.000,211.203 236.216,211.063 236.580 C 210.915 236.967,211.033 237.085,211.420 236.937 C 211.784 236.797,212.000 236.963,212.000 237.381 C 212.000 237.747,212.180 237.936,212.400 237.800 C 212.620 237.664,212.800 237.023,212.800 236.376 C 212.800 235.164,210.833 234.576,210.200 235.600 M180.400 245.524 C 180.400 247.261,181.261 248.209,182.322 247.641 C 184.547 246.451,184.316 244.400,181.957 244.400 C 180.517 244.400,180.400 244.485,180.400 245.524 M216.244 245.029 C 215.645 246.592,218.131 248.656,219.068 247.374 C 220.237 245.776,219.762 244.400,218.043 244.400 C 216.996 244.400,216.407 244.606,216.244 245.029 M177.333 252.265 C 177.640 254.156,178.090 254.594,179.148 254.028 C 181.378 252.834,181.099 250.800,178.705 250.800 L 177.095 250.800 177.333 252.265 M219.444 251.429 C 219.132 252.242,219.793 253.461,220.852 254.028 C 221.910 254.594,222.360 254.156,222.667 252.265 L 222.905 250.800 221.295 250.800 C 220.200 250.800,219.608 251.001,219.444 251.429 M174.252 258.500 C 173.482 261.375,174.375 263.916,175.978 263.407 C 176.918 263.109,177.538 261.513,176.808 261.269 C 176.412 261.137,176.412 261.040,176.805 260.797 C 177.473 260.384,177.435 258.394,176.750 257.961 C 175.708 257.301,174.504 257.561,174.252 258.500 M223.250 257.961 C 222.565 258.394,222.527 260.384,223.195 260.797 C 223.588 261.040,223.588 261.137,223.192 261.269 C 222.462 261.513,223.082 263.109,224.022 263.407 C 225.625 263.916,226.518 261.375,225.748 258.500 C 225.496 257.561,224.292 257.301,223.250 257.961 M171.067 266.667 C 170.702 267.031,170.741 269.288,171.122 269.888 C 172.087 271.407,174.818 268.755,174.132 266.966 C 173.911 266.392,171.570 266.163,171.067 266.667 M225.876 266.945 C 225.417 268.142,226.203 269.743,227.407 270.065 C 228.828 270.445,229.249 269.934,229.104 268.000 C 228.988 266.444,226.394 265.596,225.876 266.945 M167.600 274.551 C 167.600 276.939,169.640 277.367,170.789 275.220 C 171.476 273.937,170.881 273.200,169.157 273.200 C 167.655 273.200,167.600 273.248,167.600 274.551 M229.044 273.829 C 228.496 275.258,230.719 277.297,231.826 276.379 C 233.178 275.256,232.543 273.200,230.843 273.200 C 229.796 273.200,229.207 273.406,229.044 273.829 M165.285 279.647 C 164.604 279.899,164.400 280.295,164.400 281.363 C 164.400 282.679,164.321 282.758,162.900 282.876 C 161.229 283.014,160.408 284.921,161.790 285.452 C 162.743 285.817,163.109 285.215,162.295 284.620 C 161.701 284.185,161.678 284.033,162.149 283.642 C 162.581 283.284,162.759 283.317,162.941 283.790 C 163.273 284.656,163.869 284.545,164.124 283.570 C 164.243 283.114,164.714 282.643,165.170 282.524 C 166.145 282.269,166.256 281.673,165.390 281.341 C 164.906 281.155,164.879 280.987,165.260 280.528 C 165.677 280.026,165.786 280.032,166.090 280.575 C 166.563 281.420,167.064 281.362,167.307 280.435 C 167.544 279.528,166.600 279.160,165.285 279.647 M233.143 279.494 C 232.713 279.591,232.556 279.911,232.690 280.421 C 232.933 281.352,233.534 281.439,233.859 280.590 C 234.045 280.106,234.213 280.079,234.672 280.460 C 235.174 280.877,235.168 280.986,234.625 281.290 C 233.762 281.773,233.843 282.266,234.830 282.524 C 235.286 282.643,235.757 283.114,235.876 283.570 C 236.131 284.545,236.727 284.656,237.059 283.790 C 237.241 283.317,237.419 283.284,237.851 283.642 C 238.322 284.033,238.299 284.185,237.705 284.620 C 236.891 285.215,237.257 285.817,238.210 285.452 C 239.580 284.926,238.773 283.014,237.123 282.877 C 235.744 282.763,235.637 282.658,235.523 281.321 C 235.396 279.843,234.534 279.181,233.143 279.494 M155.090 286.244 C 154.473 286.860,154.805 288.775,155.603 289.201 C 156.260 289.553,156.585 289.451,157.399 288.638 C 158.375 287.661,158.408 286.406,157.457 286.395 C 157.206 286.392,156.635 286.291,156.190 286.171 C 155.744 286.052,155.249 286.084,155.090 286.244 M242.934 286.274 C 241.622 286.536,241.483 287.520,242.601 288.638 C 243.960 289.996,245.308 289.376,245.123 287.477 C 244.997 286.176,244.578 285.946,242.934 286.274 M147.000 289.482 C 145.219 290.897,147.484 293.164,150.021 292.506 C 151.249 292.188,152.423 290.290,151.786 289.653 C 151.439 289.306,147.404 289.162,147.000 289.482 M248.700 289.476 C 248.060 289.643,248.035 290.937,248.651 292.055 C 249.446 293.498,253.447 292.445,253.418 290.800 C 253.391 289.293,251.467 288.753,248.700 289.476 M25.355 292.033 C 23.236 292.648,24.143 295.510,26.540 295.774 C 27.952 295.929,28.790 293.493,27.728 292.320 C 27.005 291.521,27.087 291.531,25.355 292.033 M372.277 292.315 C 371.211 293.493,372.044 295.929,373.460 295.774 C 374.799 295.627,375.626 294.801,375.773 293.466 C 375.888 292.420,375.848 292.389,373.567 291.763 C 373.219 291.667,372.639 291.915,372.277 292.315 M122.267 292.667 C 121.368 293.565,122.029 295.569,123.300 295.801 C 125.739 296.245,135.628 295.802,135.980 295.232 C 136.232 294.824,136.340 294.819,136.469 295.208 C 136.716 295.949,138.311 295.312,138.616 294.350 C 139.143 292.689,137.968 292.426,129.967 292.413 C 125.878 292.406,122.413 292.520,122.267 292.667 M261.864 292.978 C 261.373 293.353,261.213 293.811,261.384 294.350 C 261.694 295.326,263.173 295.891,263.602 295.198 C 263.835 294.820,263.943 294.828,264.077 295.231 C 264.268 295.803,274.239 296.249,276.723 295.796 C 277.968 295.569,278.038 295.468,277.923 294.078 L 277.800 292.600 270.200 292.508 C 264.173 292.435,262.448 292.532,261.864 292.978 " stroke="none" fill="#8d8888" fill-rule="evenodd"></path><path id="path4" d="M100.598 139.992 C 100.682 140.427,100.582 140.888,100.375 141.015 C 99.846 141.342,99.907 142.400,100.456 142.400 C 100.707 142.400,101.170 142.085,101.486 141.700 C 101.801 141.315,101.961 141.200,101.840 141.445 C 101.710 141.709,101.982 141.872,102.510 141.845 C 103.135 141.813,103.413 141.535,103.445 140.910 C 103.472 140.382,103.309 140.110,103.045 140.240 C 102.800 140.361,102.949 140.176,103.376 139.830 C 104.109 139.236,104.048 139.200,102.299 139.200 C 100.668 139.200,100.464 139.295,100.598 139.992 M111.200 139.816 C 111.200 140.441,112.391 141.442,113.558 141.798 C 114.398 142.055,114.447 142.016,113.958 141.487 C 113.651 141.156,113.289 140.951,113.153 141.033 C 113.018 141.114,112.612 140.855,112.252 140.457 C 111.707 139.855,111.695 139.733,112.181 139.733 C 112.502 139.733,112.648 139.928,112.506 140.167 C 112.363 140.405,112.596 140.336,113.023 140.013 C 113.450 139.690,113.668 139.583,113.506 139.774 C 113.201 140.134,114.300 141.170,115.000 141.181 C 115.220 141.185,115.130 141.013,114.800 140.800 C 114.470 140.587,114.395 140.409,114.633 140.406 C 115.398 140.395,115.607 140.909,115.097 141.540 C 114.700 142.029,114.701 142.093,115.100 141.853 C 115.375 141.688,115.600 141.743,115.600 141.976 C 115.600 142.209,115.972 142.400,116.427 142.400 C 117.142 142.400,117.234 142.196,117.109 140.900 C 116.949 139.233,115.742 138.664,114.501 139.669 C 114.141 139.961,113.970 139.995,114.120 139.743 C 114.308 139.430,113.893 139.298,112.797 139.322 C 111.881 139.342,111.200 139.553,111.200 139.816 M243.900 148.432 C 243.374 148.739,243.202 149.356,243.207 150.920 C 243.210 152.064,242.994 155.481,242.727 158.513 C 242.213 164.338,242.275 164.974,243.947 170.928 C 244.368 172.428,245.092 174.059,245.555 174.552 C 246.018 175.045,246.689 176.306,247.047 177.355 C 247.404 178.404,247.952 179.360,248.265 179.480 C 248.966 179.749,250.400 182.484,250.400 183.553 C 250.400 183.985,250.825 184.847,251.344 185.469 C 252.562 186.929,253.600 188.963,253.600 189.891 C 253.600 190.293,254.314 191.571,255.186 192.732 C 256.058 193.893,256.883 195.434,257.018 196.157 C 257.456 198.489,259.984 200.800,262.098 200.800 C 266.136 200.800,267.538 200.394,267.812 199.145 C 267.951 198.512,268.770 197.055,269.632 195.908 C 270.495 194.760,271.200 193.495,271.200 193.095 C 271.200 192.165,272.552 189.504,273.368 188.827 C 273.712 188.541,274.188 187.588,274.425 186.709 C 274.661 185.830,275.294 184.704,275.832 184.206 C 276.369 183.708,277.169 182.251,277.611 180.969 C 278.052 179.687,278.767 178.261,279.200 177.800 C 279.633 177.339,280.353 175.899,280.800 174.600 C 281.247 173.301,281.958 171.870,282.380 171.419 C 283.839 169.861,284.000 168.566,284.000 158.417 C 284.000 147.041,284.382 148.000,279.847 148.000 C 275.802 148.000,276.002 147.462,275.990 158.380 C 275.980 168.361,275.754 170.317,274.421 171.969 C 273.440 173.184,272.936 174.218,272.639 175.624 C 272.520 176.187,271.972 177.267,271.420 178.024 C 270.213 179.680,269.727 180.662,269.439 182.024 C 269.320 182.587,268.772 183.667,268.220 184.424 C 267.246 185.761,266.897 186.424,265.781 189.066 C 264.433 192.255,259.300 189.243,258.170 184.600 C 258.010 183.940,257.427 182.860,256.876 182.200 C 256.325 181.540,255.471 180.093,254.979 178.984 C 254.487 177.875,253.805 176.736,253.464 176.453 C 253.123 176.170,252.539 175.007,252.167 173.869 C 251.795 172.731,251.020 170.990,250.445 170.000 L 249.400 168.200 249.530 158.530 C 249.656 149.186,249.633 148.846,248.856 148.430 C 247.847 147.890,244.829 147.891,243.900 148.432 M294.800 148.341 L 293.800 148.636 293.697 174.195 C 293.638 188.789,293.747 199.907,293.951 200.111 C 294.546 200.706,298.979 200.946,299.934 200.435 C 300.778 199.984,300.800 199.766,300.800 191.986 C 300.800 181.644,300.834 181.600,308.839 181.600 C 315.160 181.600,316.543 182.357,317.789 186.498 C 318.077 187.453,318.771 188.911,319.332 189.738 C 319.893 190.564,320.556 192.223,320.805 193.424 C 321.054 194.625,321.684 196.113,322.203 196.731 C 322.723 197.348,323.270 198.341,323.420 198.937 C 323.802 200.459,324.695 200.801,328.274 200.794 C 332.474 200.786,332.602 200.679,331.856 197.822 C 331.526 196.559,330.995 195.227,330.676 194.863 C 329.800 193.861,328.800 191.736,328.800 190.875 C 328.800 190.454,328.256 189.425,327.591 188.589 C 326.926 187.752,326.284 186.602,326.165 186.034 C 326.046 185.465,325.608 184.020,325.192 182.822 L 324.435 180.644 325.466 178.750 C 326.033 177.709,327.195 176.295,328.048 175.609 C 328.902 174.923,329.600 174.156,329.600 173.903 C 329.600 173.650,330.095 172.927,330.700 172.296 L 331.800 171.148 331.800 164.465 L 331.800 157.781 330.323 155.978 C 329.511 154.986,328.665 153.698,328.444 153.115 C 328.176 152.412,327.403 151.773,326.142 151.216 C 325.098 150.754,323.604 149.886,322.822 149.288 L 321.400 148.200 308.600 148.123 C 301.560 148.081,295.350 148.179,294.800 148.341 M318.040 156.454 C 318.788 156.704,319.850 157.308,320.400 157.796 C 320.950 158.284,321.705 158.789,322.077 158.920 C 323.592 159.451,324.128 161.082,324.165 165.269 L 324.200 169.282 322.200 171.039 C 319.479 173.431,318.314 173.672,310.191 173.525 C 303.873 173.411,303.155 173.325,302.128 172.557 L 301.000 171.715 300.890 165.250 C 300.770 158.198,300.898 157.645,302.883 156.667 C 304.493 155.874,315.827 155.715,318.040 156.454 M102.400 216.923 C 102.400 217.265,101.995 217.602,101.500 217.672 C 101.005 217.742,100.600 218.070,100.600 218.400 C 100.600 218.730,101.005 219.058,101.500 219.128 C 102.175 219.224,102.400 219.056,102.400 218.457 C 102.400 218.018,102.698 217.600,103.062 217.529 C 103.679 217.409,103.679 217.362,103.062 216.851 C 102.495 216.380,102.400 216.391,102.400 216.923 M114.451 216.938 C 113.979 217.508,113.993 217.600,114.551 217.600 C 114.941 217.600,115.200 217.931,115.200 218.428 C 115.200 219.058,115.415 219.225,116.100 219.128 C 117.255 218.964,117.275 217.839,116.125 217.675 C 115.643 217.607,115.193 217.264,115.125 216.913 C 115.012 216.337,114.947 216.340,114.451 216.938 M164.933 280.649 C 164.933 280.933,165.173 281.258,165.467 281.370 C 165.760 281.483,166.000 281.851,166.000 282.187 C 166.000 282.922,166.463 282.977,167.120 282.320 C 167.777 281.663,167.722 281.200,166.987 281.200 C 166.651 281.200,166.283 280.960,166.170 280.667 C 165.908 279.983,164.933 279.970,164.933 280.649 M233.830 280.667 C 233.717 280.960,233.349 281.200,233.013 281.200 C 232.278 281.200,232.223 281.663,232.880 282.320 C 233.537 282.977,234.000 282.922,234.000 282.187 C 234.000 281.851,234.240 281.483,234.533 281.370 C 235.217 281.108,235.230 280.133,234.551 280.133 C 234.267 280.133,233.942 280.373,233.830 280.667 M161.733 283.849 C 161.733 284.133,161.973 284.458,162.267 284.570 C 162.560 284.683,162.800 285.051,162.800 285.387 C 162.800 286.122,163.263 286.177,163.920 285.520 C 164.577 284.863,164.522 284.400,163.787 284.400 C 163.451 284.400,163.083 284.160,162.970 283.867 C 162.708 283.183,161.733 283.170,161.733 283.849 M237.030 283.867 C 236.917 284.160,236.549 284.400,236.213 284.400 C 235.478 284.400,235.423 284.863,236.080 285.520 C 236.737 286.177,237.200 286.122,237.200 285.387 C 237.200 285.051,237.440 284.683,237.733 284.570 C 238.417 284.308,238.430 283.333,237.751 283.333 C 237.467 283.333,237.142 283.573,237.030 283.867 " stroke="none" fill="#fbf3f2" fill-rule="evenodd"></path></g></svg>